<?xml version="1.0" standalone="no"?>
<!DOCTYPE svg PUBLIC "-//W3C//DTD SVG 20010904//EN"
 "http://www.w3.org/TR/2001/REC-SVG-20010904/DTD/svg10.dtd">
<svg version="1.0" xmlns="http://www.w3.org/2000/svg"
 width="512.000000pt" height="512.000000pt" viewBox="0 0 512.000000 512.000000"
 preserveAspectRatio="xMidYMid meet">
<metadata>
Created by potrace 1.16, written by Peter Selinger 2001-2019
</metadata>
<g transform="translate(0.000000,512.000000) scale(0.100000,-0.100000)"
fill="#000000" stroke="none">
<path d="M0 4211 l0 -909 24 -104 c73 -311 86 -699 31 -941 -14 -64 -33 -133
-40 -152 -13 -28 -15 -119 -15 -527 l0 -493 72 -80 c39 -44 75 -82 80 -84 11
-4 -20 58 -51 104 -19 27 -21 46 -21 170 0 200 36 536 91 843 16 92 32 221 36
287 8 167 12 172 54 83 l34 -73 -3 -140 c-3 -151 14 -361 30 -371 6 -4 14 -1
18 5 9 15 54 5 71 -15 6 -8 17 -14 24 -14 8 0 15 -8 17 -18 2 -9 4 39 5 108 1
137 16 262 39 339 21 73 92 174 129 185 60 18 61 18 35 26 l-25 6 29 6 c17 3
41 2 54 -3 36 -14 78 -11 93 7 12 15 11 16 -9 10 -25 -8 -82 10 -82 25 0 5 5
9 10 9 6 0 10 5 10 10 0 12 -77 13 -84 1 -3 -5 -15 -7 -25 -4 -13 3 -21 -2
-25 -15 -10 -31 -34 -48 -48 -34 -7 7 -20 12 -30 12 -15 0 -18 9 -19 63 l-2
62 -7 -64 c-4 -36 -13 -67 -21 -72 -12 -7 -14 11 -17 102 -1 61 2 136 8 167
12 67 72 196 130 282 52 77 70 128 70 202 0 52 4 64 37 109 22 28 53 57 75 66
20 9 37 23 37 32 1 32 14 86 23 98 8 9 34 12 97 8 78 -5 84 -4 67 10 -15 11
-16 15 -5 15 8 0 20 -5 27 -12 7 -7 12 -8 12 -2 0 19 -38 46 -57 40 -10 -3
-24 -2 -30 2 -9 6 0 18 30 41 l42 33 -47 -5 c-30 -3 -49 0 -51 7 -3 8 -11 7
-30 -1 -24 -11 -27 -10 -27 5 0 12 -16 1 -51 -35 -30 -32 -55 -50 -64 -47 -23
9 -41 -7 -20 -19 14 -7 15 -11 4 -18 -26 -16 0 -20 30 -5 16 9 45 16 62 16
l32 0 -21 -23 c-12 -13 -22 -34 -22 -48 0 -22 -3 -25 -34 -21 -18 2 -37 -1
-40 -7 -5 -7 3 -11 22 -11 43 0 48 -25 9 -41 -18 -7 -42 -21 -54 -32 -17 -15
-23 -17 -23 -6 -1 21 -60 96 -60 76 0 -9 4 -17 8 -17 5 0 19 -18 31 -40 21
-38 22 -42 7 -65 -19 -29 -31 -32 -40 -10 -3 9 3 20 14 27 26 16 26 32 1 25
-14 -3 -18 -1 -14 9 6 16 -38 29 -64 19 -16 -6 -16 -8 5 -23 23 -17 22 -18
-20 -15 -24 1 -35 0 -25 -3 12 -4 16 -12 12 -23 -5 -15 1 -18 36 -18 52 0 59
-11 59 -93 0 -77 -18 -118 -90 -208 l-50 -63 0 343 c0 460 3 471 160 613 92
83 192 145 256 159 20 5 40 1 60 -9 l29 -17 -35 6 c-19 3 -42 1 -50 -4 -12 -8
-10 -10 11 -10 14 0 34 -7 45 -15 12 -9 43 -14 82 -15 34 0 79 -7 99 -15 20
-8 38 -13 41 -10 9 8 -27 53 -48 60 -29 9 -25 27 5 19 14 -3 25 -2 25 2 0 17
-67 54 -96 54 -17 0 -48 8 -69 19 -34 16 -36 19 -18 25 11 4 28 4 37 0 25 -9
19 14 -8 31 -27 18 -83 11 -67 -9 7 -8 -2 -11 -32 -11 -36 0 -41 -3 -48 -29
-4 -16 -18 -39 -30 -52 -22 -24 -14 -35 9 -12 6 6 14 9 17 6 3 -3 -14 -17 -39
-31 -25 -14 -48 -22 -50 -18 -3 4 4 25 16 47 12 23 15 34 6 27 -8 -7 -24 -32
-36 -57 -20 -40 -97 -115 -107 -104 -2 2 7 35 21 73 25 74 32 110 10 60 -13
-30 -13 -30 -20 -6 -7 19 -13 22 -37 17 l-29 -6 15 30 c15 29 15 29 90 25 l76
-4 -23 28 c-19 24 -29 29 -61 26 -46 -3 -47 -11 18 135 26 58 54 122 62 143
11 26 38 53 84 88 37 27 95 79 129 115 64 69 132 106 218 120 l40 6 -6 -47
c-3 -35 -2 -46 7 -41 6 4 11 24 11 45 0 31 4 40 21 44 17 4 19 3 10 -6 -19
-19 -13 -65 10 -77 11 -7 27 -9 34 -6 8 3 17 1 20 -4 3 -5 20 -19 37 -31 l31
-23 -6 46 -6 46 49 -52 50 -51 0 33 c0 19 -8 50 -17 69 -16 34 -16 36 2 49 28
21 54 17 114 -16 30 -17 56 -28 58 -26 8 8 -16 44 -43 65 -23 18 -24 21 -8 21
34 1 -24 40 -60 40 l-31 1 25 14 c23 13 24 14 6 21 -10 4 -33 1 -50 -6 -17 -7
-49 -15 -71 -17 -22 -3 -51 -15 -65 -27 -37 -32 -68 -44 -137 -50 -34 -3 -86
-15 -115 -26 -29 -11 -54 -20 -56 -20 -2 0 11 21 29 46 39 57 78 74 166 74 47
0 76 5 91 16 16 11 34 14 58 9 39 -7 94 2 94 15 0 5 -17 10 -37 12 -28 2 -39
8 -41 22 -3 16 0 18 25 12 50 -13 87 -7 148 24 33 16 90 37 126 47 l65 17 45
-31 c69 -47 90 -57 83 -38 -4 8 -11 15 -18 15 -6 0 -34 15 -63 34 -49 31 -51
34 -37 54 9 13 21 19 32 16 14 -5 15 -4 2 5 -12 9 -21 5 -42 -19 -15 -16 -32
-30 -36 -30 -20 0 -172 -52 -177 -61 -8 -12 -62 -12 -69 0 -3 5 1 14 9 21 29
24 16 33 -36 27 -46 -6 -50 -5 -44 13 9 27 -4 25 -38 -7 -20 -19 -31 -24 -34
-15 -3 6 -17 12 -31 13 -15 0 -21 3 -14 6 7 3 17 16 22 29 7 18 17 24 40 24
16 0 30 4 30 9 0 4 -76 9 -169 10 -139 1 -171 -1 -181 -14 -11 -13 -8 -14 18
-9 17 3 32 1 36 -5 9 -15 -84 -81 -111 -79 -20 3 -63 -27 -63 -43 0 -4 16 -1
35 7 47 19 48 18 30 -16 -8 -16 -33 -39 -55 -50 l-40 -20 0 44 c0 24 7 63 15
86 21 59 11 63 -11 4 -15 -40 -19 -44 -30 -30 -10 15 -20 16 -63 8 -28 -5 -51
-6 -51 -2 0 4 20 26 45 49 45 41 47 42 99 36 42 -6 55 -4 66 10 13 15 15 15
32 -7 l18 -23 -9 25 c-8 24 -12 25 -112 28 l-104 3 -26 -31 c-28 -33 -48 -26
-30 9 10 18 6 19 -82 19 -61 0 -84 -3 -69 -9 16 -6 22 -16 22 -40 0 -23 5 -32
20 -36 16 -4 18 -8 9 -19 -9 -11 -6 -14 15 -14 14 0 26 -2 26 -5 0 -14 -30
-62 -48 -78 -23 -21 -23 -20 -47 51 -15 48 -20 53 -41 49 -30 -5 -31 14 -5 66
l19 37 -53 0 -54 0 -6 -47 c-13 -97 -19 -100 -40 -24 -11 41 -25 71 -32 71
-17 0 -17 4 13 -102 26 -90 26 -93 15 -237 -20 -244 -41 -371 -63 -371 -22 0
-128 186 -128 226 0 13 8 14 46 8 l47 -7 -19 33 c-17 29 -23 31 -56 27 -35 -5
-37 -3 -27 14 14 27 49 23 100 -11 53 -35 59 -36 59 -9 0 12 -16 36 -34 54
-36 34 -37 45 -3 45 16 0 17 3 7 15 -7 8 -23 15 -36 15 -39 0 -27 17 21 29 34
9 45 16 45 31 0 25 -38 27 -82 4 -29 -15 -31 -15 -58 11 -15 14 -43 28 -63 32
-23 3 -37 11 -37 20 0 8 32 45 70 84 39 38 70 74 70 80 0 6 -12 -3 -26 -20
-29 -34 -83 -76 -90 -69 -2 3 3 21 11 41 20 49 19 57 -9 57 -21 0 -29 -13 -67
-100 -23 -55 -46 -97 -51 -92 -4 4 -11 49 -14 100 -6 80 -9 92 -25 92 -18 0
-19 -31 -19 -909z m1277 863 c-3 -3 -12 -4 -19 -1 -8 3 -5 6 6 6 11 1 17 -2
13 -5z m-556 -14 c19 -10 26 -30 12 -30 -5 0 -19 9 -33 20 -26 21 -12 27 21
10z m479 -27 c0 -8 -42 -43 -51 -43 -4 0 -20 -11 -36 -24 -15 -13 -43 -27 -61
-31 l-34 -7 16 31 c9 17 39 49 67 71 48 38 51 39 75 24 13 -9 24 -19 24 -21z
m-588 -92 l20 -53 -24 -25 c-24 -26 -69 -53 -88 -53 -14 0 -13 23 8 107 16 67
28 84 56 79 5 -1 17 -26 28 -55z m618 14 c-7 -9 -15 -13 -17 -11 -7 7 7 26 19
26 6 0 6 -6 -2 -15z m87 -15 c19 -17 38 -28 44 -25 5 4 9 2 9 -4 0 -19 -26
-26 -100 -26 -41 0 -82 -4 -92 -8 -15 -8 -15 -6 0 27 16 36 40 51 28 19 -5
-14 -2 -13 11 3 15 18 50 43 62 44 2 0 19 -14 38 -30z m-404 -63 c-8 -14 -33
14 -33 38 0 36 24 36 32 1 3 -17 4 -34 1 -39z m-148 47 c-19 -14 -18 -15 20
-10 44 6 67 -7 99 -56 24 -37 9 -113 -44 -218 -32 -63 -47 -84 -70 -91 -26
-10 -29 -15 -35 -80 -4 -38 -11 -69 -16 -69 -11 0 -11 173 0 221 9 39 -8 77
-29 64 -9 -5 -11 12 -8 63 2 55 0 68 -9 60 -19 -15 -16 -107 4 -143 13 -25 16
-57 14 -180 l-2 -150 -36 -65 c-19 -36 -47 -79 -62 -95 -14 -17 -33 -49 -40
-73 -8 -23 -18 -42 -22 -42 -8 0 -25 68 -39 165 -6 39 -15 84 -21 102 -7 23
-6 47 5 90 8 32 17 83 21 113 11 100 16 109 101 207 47 53 99 120 117 150 22
36 38 53 52 53 20 -1 20 -1 0 -16z m-573 -39 c48 -12 76 -65 33 -65 -7 0 -16
-6 -18 -12 -3 -7 -6 -4 -6 8 -1 26 -20 44 -46 44 -12 0 -26 -5 -33 -12 -15
-15 -15 -6 0 27 7 16 17 24 27 21 9 -3 28 -8 43 -11z m922 -13 c2 -4 -14 -40
-36 -80 -28 -51 -55 -85 -91 -112 -29 -22 -74 -58 -102 -79 -27 -22 -51 -38
-53 -36 -6 6 87 197 106 219 21 24 111 82 137 89 31 8 34 7 39 -1z m-134 -25
c0 -2 -15 -18 -34 -36 -36 -35 -38 -32 -20 27 3 10 54 19 54 9z m-835 -54 c40
-19 44 -30 13 -35 -31 -4 -34 -26 -4 -34 38 -9 40 -31 3 -43 -17 -6 -42 -21
-55 -34 l-25 -22 7 75 c7 75 14 110 21 110 3 0 20 -8 40 -17z m165 -27 c0 -2
-7 -6 -15 -10 -8 -3 -15 -1 -15 4 0 6 7 10 15 10 8 0 15 -2 15 -4z m1057 -43
c-3 -10 -5 -4 -5 12 0 17 2 24 5 18 2 -7 2 -21 0 -30z m-1137 -145 c14 -40 46
-108 73 -152 55 -91 56 -70 -7 -233 -48 -122 -61 -175 -96 -388 -35 -210 -52
-275 -79 -299 -18 -16 -20 -16 -40 10 -37 46 -55 129 -55 245 0 95 2 111 28
162 17 35 47 74 77 100 49 42 61 71 37 95 -19 19 -28 14 -28 -17 0 -23 -8 -34
-34 -51 -19 -11 -37 -26 -40 -33 -14 -36 -2 77 14 123 18 54 18 54 -2 83 -20
28 -21 38 -15 186 4 87 9 165 13 175 9 25 74 66 104 66 23 0 28 -8 50 -72z
m205 -419 c9 -46 27 -125 41 -176 28 -103 27 -114 -32 -273 -25 -69 -28 -89
-32 -260 l-4 -185 -39 -1 c-22 -1 -37 3 -36 8 4 20 -22 19 -42 -1 -12 -12 -28
-21 -36 -21 -8 0 -15 -4 -15 -9 0 -5 -7 -12 -16 -15 -14 -6 -16 2 -10 61 4 38
20 140 36 228 16 88 40 234 55 325 23 146 98 420 111 408 2 -3 11 -42 19 -89z
m530 -49 c4 -6 -7 -10 -25 -10 -18 0 -29 4 -25 10 3 6 15 10 25 10 10 0 22 -4
25 -10z m-276 -75 c1 -2 -7 -33 -19 -69 -15 -46 -32 -74 -56 -96 -19 -16 -36
-30 -39 -30 -2 0 0 15 5 33 5 17 12 60 15 95 5 43 11 62 21 62 8 0 14 5 14 11
0 10 48 5 59 -6z m-409 -805 c0 -5 -5 -10 -11 -10 -5 0 -7 5 -4 10 3 6 8 10
11 10 2 0 4 -4 4 -10z m130 -87 c0 -43 -11 -152 -24 -243 -13 -91 -27 -226
-31 -300 -9 -178 -19 -261 -29 -235 -20 54 -41 95 -76 150 -37 59 -38 63 -44
180 -3 66 -9 168 -12 228 -7 117 11 287 30 287 6 -1 27 -7 47 -14 32 -11 39
-10 59 6 12 10 35 18 51 18 l29 0 0 -77z m217 -689 c-3 -3 -12 -4 -19 -1 -8 3
-5 6 6 6 11 1 17 -2 13 -5z m-81 -39 c3 -8 -5 -29 -17 -47 l-23 -32 -7 24
c-15 53 -10 62 34 69 4 0 10 -6 13 -14z m-71 -120 c-3 -22 -13 -53 -20 -70
-14 -29 -14 -27 -9 35 2 36 8 83 11 105 l6 40 9 -35 c5 -19 7 -52 3 -75z"/>
<path d="M787 4795 c-9 -19 -15 -35 -12 -35 7 0 37 61 33 66 -3 2 -12 -12 -21
-31z"/>
<path d="M741 4693 c-10 -26 -10 -27 4 -9 8 11 15 23 15 28 0 15 -7 8 -19 -19z"/>
<path d="M3822 5110 c-46 -11 -74 -38 -66 -64 9 -29 9 -29 44 -11 17 9 41 17
54 18 12 1 39 17 61 35 l40 32 -50 -1 c-28 -1 -65 -5 -83 -9z"/>
<path d="M4010 5100 c6 -11 30 -34 54 -52 24 -18 61 -60 82 -93 41 -63 98
-134 205 -258 64 -74 66 -79 72 -144 4 -38 10 -94 13 -125 9 -73 0 -74 -70 -8
-65 62 -96 118 -131 240 -15 52 -31 102 -36 110 -7 11 -8 9 -4 -7 7 -27 9 -27
-80 -7 -38 9 -85 15 -102 15 -39 -2 -41 5 -11 36 28 30 8 31 -47 3 -22 -11
-44 -20 -51 -20 -6 0 -17 -7 -24 -16 -8 -8 -9 -14 -4 -13 19 3 34 -1 34 -11 0
-5 -19 -10 -43 -10 -48 0 -89 -23 -81 -45 5 -11 -1 -15 -18 -15 -26 0 -58 -27
-58 -49 0 -8 8 -6 25 5 34 22 49 10 30 -27 -21 -39 -12 -37 43 11 25 22 57 43
71 46 14 3 45 10 69 16 23 6 58 8 77 5 37 -6 43 1 23 21 -21 21 11 34 71 27
60 -6 91 -19 91 -39 0 -40 55 -197 82 -235 l31 -44 -24 -18 c-30 -22 -104 -44
-119 -34 -8 5 0 17 22 37 31 27 31 28 8 22 -14 -4 -37 -15 -52 -26 -16 -11
-36 -17 -46 -14 -10 4 -27 -1 -38 -9 -18 -14 -18 -14 -1 -15 25 0 17 -22 -14
-38 -23 -12 -22 -13 11 -6 19 4 53 8 75 9 36 2 147 48 179 74 9 8 21 1 42 -22
71 -76 81 -94 88 -159 6 -53 25 -100 121 -298 112 -229 116 -239 155 -410 22
-96 43 -183 46 -192 4 -13 -3 -18 -30 -24 -20 -3 -33 -11 -30 -16 4 -5 21 -7
39 -4 30 6 33 4 39 -25 8 -40 8 -54 0 -46 -4 3 -16 1 -28 -5 -11 -7 -24 -11
-28 -10 -5 1 -8 -5 -8 -13 0 -17 -16 -20 -25 -5 -3 6 -17 7 -30 4 -15 -4 -33
1 -52 16 -25 18 -33 20 -56 9 -30 -14 -27 -29 7 -29 12 0 31 -7 42 -15 17 -13
15 -14 -26 -9 -36 5 -50 2 -70 -14 l-25 -20 26 5 c32 6 46 -12 27 -34 -11 -15
-11 -16 7 -9 38 15 207 28 200 15 -4 -5 -2 -9 4 -9 5 0 12 -8 14 -17 3 -12 5
-9 6 8 0 14 9 33 20 43 17 16 19 14 30 -40 6 -32 11 -68 11 -82 0 -21 -2 -22
-15 -12 -8 7 -15 19 -15 26 0 8 -10 14 -22 14 -15 0 -29 11 -40 30 -9 17 -23
30 -30 30 -9 0 -10 -3 -2 -8 17 -11 36 -52 24 -52 -5 0 -10 -4 -10 -10 0 -5
11 -10 24 -10 35 0 84 -45 95 -88 6 -20 24 -101 41 -180 17 -79 58 -222 92
-319 52 -153 92 -319 131 -543 2 -14 5 114 6 283 1 262 -1 313 -15 345 -35 81
-54 147 -73 255 -12 61 -38 185 -60 273 -37 155 -39 164 -27 230 16 98 95 220
154 238 12 4 22 12 22 17 0 6 -4 7 -10 4 -14 -9 -12 8 2 26 7 7 -27 -24 -75
-71 -48 -46 -87 -82 -87 -79 0 4 6 24 14 45 7 22 16 68 20 104 8 75 65 254 88
273 16 14 48 62 48 74 0 4 -11 -9 -25 -30 -14 -20 -28 -37 -32 -37 -12 0 9 66
32 102 28 41 37 120 12 99 -11 -8 -16 -5 -25 14 -6 14 -9 32 -6 40 5 13 2 14
-21 5 -53 -20 -59 -12 -21 30 21 23 36 50 35 63 -1 20 -2 20 -6 2 -9 -36 -44
-65 -79 -65 -18 0 -34 -5 -36 -12 -3 -7 -12 -9 -22 -5 -31 12 -15 99 27 151
33 40 56 92 77 171 8 31 18 45 50 63 22 12 40 29 40 37 0 17 -16 20 -25 5 -12
-19 -26 -10 -19 13 15 47 14 51 -4 14 l-19 -37 -19 21 c-16 18 -26 20 -63 15
-43 -6 -71 -20 -71 -37 0 -5 8 -6 18 -2 14 5 13 2 -5 -17 -20 -22 -22 -22 -54
-6 -36 18 -69 21 -69 6 0 -5 5 -9 11 -7 21 4 20 -20 -1 -26 -37 -10 -23 -30
16 -22 30 5 47 1 93 -24 l57 -30 14 22 c12 19 11 20 -2 10 -12 -10 -18 -10
-33 1 -22 16 -11 24 43 30 l40 6 -17 -58 c-22 -71 -43 -111 -70 -136 -24 -22
-27 -12 -6 24 8 14 14 30 14 35 0 6 -12 -12 -26 -40 -15 -28 -25 -62 -24 -78
5 -51 -31 -144 -77 -203 -32 -41 -47 -53 -52 -43 -17 32 -43 253 -44 369 -1
125 -1 125 42 228 23 57 56 154 73 215 16 61 35 117 41 125 7 8 42 29 79 47
64 33 67 33 61 12 -4 -18 4 -14 45 23 41 36 51 52 52 78 2 54 -37 37 -70 -31
-9 -18 -40 -42 -86 -68 -40 -22 -73 -36 -73 -31 0 4 22 52 49 105 l48 97 -30
0 c-24 0 -27 -3 -18 -14 8 -10 1 -35 -33 -107 -24 -52 -65 -155 -91 -229 -26
-74 -57 -153 -69 -175 l-21 -40 -3 61 c-2 34 1 102 6 153 8 75 17 106 51 177
23 48 55 106 71 130 l29 44 -34 0 c-31 0 -37 -5 -69 -62 -37 -65 -50 -55 -21
15 18 44 18 47 2 47 -12 0 -57 -102 -57 -128 0 -7 -4 -11 -9 -8 -5 3 -12 35
-16 71 -6 60 -8 65 -31 65 -22 0 -24 -4 -25 -52 -1 -49 -1 -51 -11 -23 -14 44
-30 75 -39 75 -4 0 2 -17 12 -37 10 -21 19 -45 19 -54 0 -10 4 -19 10 -21 11
-4 -88 -185 -106 -192 -9 -3 -15 7 -19 32 -6 40 -29 160 -45 232 -8 38 -9 31
-5 -45 2 -49 9 -126 15 -170 13 -95 6 -176 -14 -154 -38 41 -76 206 -76 330 0
46 -4 79 -10 79 -5 0 -10 -16 -10 -35 0 -19 -4 -35 -9 -35 -5 0 -12 16 -15 35
-4 19 -11 35 -16 35 -4 0 -2 -25 7 -56 23 -91 13 -95 -45 -16 -55 73 -93 102
-48 35 14 -20 23 -40 20 -45 -3 -4 -1 -8 5 -8 23 0 91 -116 106 -183 9 -38 13
-72 10 -75 -11 -11 -160 153 -229 251 -37 53 -73 97 -79 97 -5 0 -3 -8 5 -17
32 -37 29 -47 -3 -15 -40 36 -55 41 -39 12z m617 -132 c0 -7 6 -37 13 -67 10
-41 11 -87 4 -190 -13 -199 -8 -487 11 -630 9 -68 14 -125 12 -128 -3 -2 -30
33 -61 79 -44 66 -59 98 -71 153 -19 92 -45 347 -48 467 -2 95 -2 96 35 149
20 30 50 82 67 117 32 64 38 71 38 50z m293 -894 c0 -8 -7 -14 -15 -14 -17 0
-18 2 -9 24 7 18 24 12 24 -10z m158 -149 c-24 -44 -33 -54 -38 -41 -3 9 -6
-8 -6 -39 -1 -30 -4 -58 -8 -62 -10 -10 -34 27 -50 77 -9 28 -15 37 -15 23 -1
-25 -11 -29 -29 -11 -6 6 -14 9 -18 6 -3 -3 9 -14 26 -24 18 -11 28 -24 25
-32 -3 -8 -5 -58 -5 -112 0 -92 -2 -101 -26 -130 -21 -24 -29 -49 -38 -118
l-12 -87 -26 95 c-33 118 -64 265 -72 348 -7 61 -6 63 31 107 33 40 42 45 78
45 22 0 60 5 85 11 33 8 50 7 68 -3 21 -11 25 -10 34 6 6 11 14 14 19 9 6 -6
-4 -33 -23 -68z m-73 -145 c13 -25 13 -34 0 -77 -27 -89 -35 -85 -35 20 0 101
6 112 35 57z m-49 -325 l-15 -40 0 39 c-1 21 5 57 12 80 l12 41 3 -40 c1 -22
-4 -58 -12 -80z m-146 -286 c0 -5 -4 -9 -10 -9 -5 0 -10 7 -10 16 0 8 5 12 10
9 6 -3 10 -10 10 -16z"/>
<path d="M4941 3940 c14 -31 19 -36 19 -24 0 6 -7 19 -16 30 -14 18 -14 18 -3
-6z"/>
<path d="M5016 3927 c3 -10 9 -15 12 -12 3 3 0 11 -7 18 -10 9 -11 8 -5 -6z"/>
<path d="M4124 5109 c-9 -16 80 -78 94 -65 3 3 0 6 -6 6 -6 0 -27 16 -46 35
-21 21 -38 30 -42 24z"/>
<path d="M1885 5045 c-39 -17 -21 -18 25 0 19 7 28 14 20 14 -8 0 -28 -6 -45
-14z"/>
<path d="M1988 5053 c6 -2 18 -2 25 0 6 3 1 5 -13 5 -14 0 -19 -2 -12 -5z"/>
<path d="M2050 5050 l-25 -8 28 -1 c15 -1 27 4 27 9 0 6 -1 10 -2 9 -2 -1 -14
-5 -28 -9z"/>
<path d="M2123 5043 c9 -2 23 -2 30 0 6 3 -1 5 -18 5 -16 0 -22 -2 -12 -5z"/>
<path d="M843 5023 c9 -2 23 -2 30 0 6 3 -1 5 -18 5 -16 0 -22 -2 -12 -5z"/>
<path d="M3691 4984 c-29 -24 -44 -53 -20 -38 6 3 15 1 19 -6 6 -9 17 -5 44
16 20 16 36 35 36 42 0 21 -47 13 -79 -14z"/>
<path d="M2541 4958 c-35 -18 -96 -62 -135 -99 -39 -37 -89 -74 -109 -83 -37
-15 -38 -15 -32 4 9 27 -17 26 -80 -4 -64 -29 -109 -68 -125 -105 -10 -25 -19
-31 -59 -37 -48 -7 -88 -24 -133 -57 -21 -16 -37 -19 -82 -15 -31 3 -56 2 -56
-2 0 -16 40 -42 72 -47 18 -3 34 -6 35 -7 1 -1 -51 -2 -116 -1 -113 0 -119 -1
-166 -30 -58 -36 -85 -83 -92 -163 -7 -76 16 -156 62 -217 50 -64 56 -120 20
-163 -17 -20 -39 -34 -63 -38 -31 -6 -33 -8 -17 -15 11 -4 35 -8 54 -8 l33 -1
-51 -39 c-43 -31 -101 -94 -101 -108 0 -2 9 1 19 7 39 20 42 9 9 -32 -19 -24
-51 -69 -71 -100 -33 -51 -35 -58 -18 -58 17 0 16 -6 -15 -67 -60 -120 -78
-221 -80 -443 -1 -107 -5 -231 -9 -275 -9 -92 3 -164 40 -244 14 -30 27 -52
29 -50 2 2 -2 33 -10 69 -15 69 -11 140 10 179 11 20 12 17 8 -33 -6 -71 27
-142 103 -225 l54 -58 -15 -49 c-20 -65 -20 -261 0 -329 l14 -50 1 43 c1 61
17 52 24 -15 4 -32 19 -107 34 -168 14 -60 26 -132 25 -160 -10 -241 -7 -299
21 -400 15 -55 53 -158 83 -230 116 -272 137 -324 180 -451 56 -166 56 -167 2
-159 -90 13 -189 -30 -225 -98 -9 -18 -19 -63 -22 -102 l-6 -70 -43 81 c-63
120 -76 130 -37 29 19 -49 35 -90 35 -91 0 0 -26 12 -57 28 -32 15 -85 32
-118 37 l-59 9 24 -20 c54 -43 141 -131 135 -136 -3 -3 -22 11 -43 31 -50 49
-98 62 -165 46 -45 -11 -48 -13 -28 -21 12 -4 27 -6 31 -3 5 3 11 1 14 -4 3
-5 -5 -12 -18 -15 -13 -3 -30 -16 -39 -29 -14 -21 -13 -23 6 -25 17 -1 19 1 7
8 -8 5 -10 10 -5 10 6 -1 19 -7 29 -15 11 -8 32 -15 47 -15 15 0 30 -4 33 -9
3 -5 27 -7 53 -5 60 4 89 -4 74 -19 -18 -18 -12 -27 19 -27 19 0 33 7 40 20
15 28 66 52 103 48 l32 -3 -44 -30 c-40 -27 -42 -30 -22 -33 12 -2 29 2 38 10
28 23 807 30 973 9 131 -17 419 -19 526 -2 45 6 134 27 199 46 246 72 359 89
920 134 116 9 382 59 560 105 33 9 116 26 185 39 102 19 126 27 128 42 3 14 0
17 -19 11 -13 -3 -51 -9 -84 -12 l-60 -7 45 35 c59 46 120 121 120 147 0 15
-20 0 -82 -63 -57 -57 -103 -93 -147 -114 -93 -46 -95 -45 -114 43 -10 42 -17
79 -17 84 0 5 17 12 38 16 105 19 220 126 285 264 37 80 39 86 35 170 -3 83
-5 89 -45 146 -87 122 -123 194 -173 340 -62 181 -100 254 -162 316 -32 32
-53 65 -66 103 -10 31 -16 56 -12 56 4 0 35 -20 69 -45 121 -89 184 -213 231
-455 25 -124 53 -187 114 -255 49 -54 64 -43 20 16 -48 64 -72 124 -111 284
-40 160 -86 285 -106 285 -6 0 -8 3 -4 6 7 7 -70 76 -168 150 -41 31 -85 73
-97 93 -13 20 -44 59 -70 88 -37 41 -48 61 -53 100 -32 227 -114 362 -311 504
l-81 58 -6 183 c-3 106 -12 210 -21 248 -20 88 -114 370 -132 397 -18 28 -18
34 0 27 8 -3 17 -1 20 4 3 6 -4 12 -17 16 -12 3 -36 19 -52 36 l-29 30 50 0
c46 1 48 2 22 13 -33 15 -81 74 -115 142 -14 28 -34 62 -44 77 -17 24 -18 27
-3 30 12 2 -6 24 -60 76 l-77 73 19 32 c43 69 50 194 18 272 -20 47 -74 92
-135 115 l-56 20 48 -6 c26 -3 47 -1 47 4 0 13 -89 58 -140 70 -25 6 -76 14
-115 18 l-69 7 39 34 c22 19 56 43 75 53 l35 18 -30 12 c-58 23 -91 30 -192
40 -56 5 -114 12 -129 16 l-27 7 34 18 34 17 -38 7 c-89 17 -253 -32 -309 -92
l-23 -24 47 26 c41 23 174 53 184 42 2 -2 -17 -18 -42 -36 -25 -18 -44 -35
-42 -36 2 -2 28 5 58 15 30 11 75 19 100 19 l45 0 -65 -22 c-36 -12 -81 -33
-100 -46 -56 -39 -152 -121 -188 -160 l-33 -36 21 43 c11 23 18 42 15 42 -3 0
-24 -37 -45 -82 -40 -83 -53 -87 -25 -8 8 24 13 45 11 48 -3 2 2 19 10 36 l15
31 -20 -25 c-28 -34 -58 -99 -72 -155 l-12 -47 -13 32 c-18 43 -18 108 2 183
24 94 63 157 127 207 l28 22 -35 -69 c-20 -39 -36 -74 -36 -79 0 -4 20 19 44
53 51 70 96 107 152 127 l39 14 -40 7 -40 8 40 18 c29 13 34 19 20 20 -73 6
-189 -17 -256 -51 l-41 -21 7 23 c4 13 15 42 26 66 10 23 15 42 11 42 -4 0
-36 -15 -71 -32z m15 -68 c-14 -36 -39 -210 -31 -218 2 -2 11 17 20 43 21 53
41 73 31 29 -4 -16 -18 -67 -32 -113 -14 -46 -27 -108 -27 -137 -2 -45 -4 -51
-14 -37 -7 9 -15 33 -19 52 -15 88 -22 98 -23 32 l-1 -64 -22 19 c-14 11 -18
13 -11 3 7 -8 20 -33 28 -55 l16 -39 -20 25 c-11 14 -34 50 -51 81 -33 63 -38
110 -15 174 8 21 13 41 11 42 -7 7 -25 -24 -40 -70 -21 -64 -20 -132 4 -209
24 -76 25 -98 5 -98 -9 0 -15 9 -15 23 0 26 -47 105 -76 127 -16 12 -15 10 2
-10 25 -28 53 -82 64 -119 7 -25 4 -27 -55 -47 l-62 -21 -6 82 c-6 89 -29 158
-70 219 -27 39 -36 90 -18 101 6 3 14 -2 19 -11 8 -15 11 -14 26 7 l16 23 1
-29 1 -30 9 31 c5 17 18 39 29 49 19 17 19 17 10 -16 -6 -19 -10 -45 -10 -59
0 -25 0 -25 19 5 10 17 28 38 39 49 l21 18 -20 -51 c-27 -72 -23 -85 7 -26 51
99 126 179 243 258 33 22 37 15 17 -33z m734 -170 c14 -4 20 -8 14 -9 -7 -1
-35 -17 -63 -36 -28 -19 -59 -35 -68 -36 -10 0 -13 -3 -7 -5 7 -3 -9 -24 -35
-49 l-46 -44 45 22 c39 19 61 22 165 22 201 0 239 -26 65 -43 -71 -7 -126 -19
-153 -32 -23 -11 -33 -18 -22 -14 11 3 45 8 75 11 l55 5 -53 -26 c-29 -14 -74
-40 -100 -58 -26 -18 -47 -30 -47 -28 0 7 -54 -33 -84 -61 l-23 -22 7 24 c4
13 26 44 49 68 22 24 32 38 21 32 -43 -23 -85 -69 -104 -111 -12 -27 -21 -37
-21 -25 0 11 9 39 20 63 10 23 17 42 15 42 -8 0 -45 -79 -45 -95 0 -8 -4 -15
-10 -15 -19 0 -21 47 -5 115 25 111 68 165 157 197 50 18 51 19 13 13 -116
-18 -215 -144 -215 -273 0 -23 -4 -33 -12 -30 -7 3 -38 13 -68 23 -77 25 -82
31 -74 79 18 111 91 218 185 270 32 18 31 16 -17 -35 -56 -60 -68 -79 -78
-124 -5 -26 -3 -24 17 13 47 88 132 154 220 172 54 10 195 10 227 0z m-1150
-157 c31 -35 50 -88 50 -143 l0 -35 -21 35 c-49 81 -111 127 -198 145 -53 12
-55 13 -31 23 14 7 58 11 99 9 68 -2 75 -5 101 -34z m303 -167 c4 -38 -27 -23
-35 17 -4 21 -14 50 -22 65 -33 65 -24 71 14 8 22 -39 42 -79 43 -90z m-363
105 c54 -43 92 -103 97 -155 3 -25 2 -46 -3 -46 -5 0 -22 28 -37 63 -31 71
-76 130 -121 159 l-31 20 30 -7 c17 -3 46 -19 65 -34z m-73 5 c16 -8 42 -32
58 -52 27 -35 57 -105 49 -113 -8 -8 -122 45 -169 79 -27 20 -59 41 -69 47
-18 10 -18 11 4 23 23 12 23 13 4 27 -17 14 -14 15 37 10 31 -3 70 -12 86 -21z
m1350 8 c-3 -3 -12 -4 -19 -1 -8 3 -5 6 6 6 11 1 17 -2 13 -5z m203 -45 c60
-32 90 -91 90 -172 0 -88 -18 -135 -72 -189 -51 -52 -72 -59 -88 -29 -8 16 -4
24 24 48 18 15 41 43 51 62 20 40 23 114 6 135 -20 24 -80 39 -136 33 -53 -5
-155 -49 -155 -67 0 -6 -6 -10 -14 -10 -8 0 -18 -5 -21 -11 -5 -7 6 -9 36 -4
27 4 55 2 74 -6 30 -12 29 -13 -30 -19 -33 -4 -76 -15 -95 -24 l-35 -16 35 6
c96 16 108 16 136 0 l29 -16 -40 5 c-22 3 -53 2 -70 -3 l-30 -9 43 -6 c24 -4
41 -11 38 -16 -3 -5 1 -11 9 -15 8 -3 15 -10 15 -15 0 -6 -17 -3 -37 5 -21 9
-54 14 -77 12 -32 -4 -55 3 -108 30 -37 19 -75 43 -84 53 -15 17 -13 21 32 75
94 111 135 142 233 180 58 22 187 13 241 -17z m-1707 -19 c27 -13 81 -54 121
-90 39 -36 86 -72 104 -79 18 -7 32 -19 32 -26 0 -7 -41 -31 -91 -54 -81 -38
-97 -42 -155 -39 -35 1 -64 4 -64 5 0 1 12 9 26 16 l27 14 -25 6 c-14 4 -40 2
-58 -3 -40 -12 -50 -6 -19 10 26 15 90 15 138 0 53 -15 48 -4 -5 14 -26 9 -67
16 -91 16 -24 0 -42 4 -39 9 10 16 82 23 120 13 48 -14 45 -7 -6 19 -27 14
-60 22 -88 22 l-45 -1 40 7 c39 6 39 7 17 19 -13 7 -49 18 -82 23 -105 17
-132 -11 -110 -116 9 -44 22 -68 51 -100 39 -42 39 -44 30 -86 -6 -24 -11 -50
-11 -56 0 -18 59 -16 90 3 l25 15 -32 -4 c-36 -4 -45 8 -13 18 10 3 54 29 97
57 43 28 110 64 148 80 39 16 97 47 130 68 53 35 157 74 321 123 52 15 52 15
77 -11 40 -43 59 -91 65 -160 l5 -64 -47 36 c-62 47 -88 47 -35 -1 22 -20 47
-50 56 -67 10 -21 11 -27 2 -18 -25 24 -28 12 -6 -25 20 -35 22 -53 25 -225 2
-104 1 -188 -3 -188 -3 0 -16 7 -29 15 -35 23 -108 30 -141 13 -27 -14 -26
-15 26 -10 48 4 59 1 104 -29 l50 -34 64 33 c35 17 56 32 45 32 -10 -1 -30 -7
-44 -15 -14 -8 -34 -14 -44 -15 -18 0 -19 7 -12 171 7 186 17 246 47 278 17
18 17 21 4 21 -14 0 -14 4 3 28 33 45 62 56 119 44 91 -20 161 -52 215 -100
45 -40 49 -42 24 -12 -60 73 -152 116 -272 127 -60 5 -62 5 -103 -32 l-41 -37
0 60 c0 37 8 83 20 116 22 57 58 111 68 101 3 -3 11 7 18 22 l12 28 1 -32 c1
-38 7 -42 128 -84 101 -35 182 -79 233 -125 19 -17 71 -51 115 -74 44 -23 99
-53 122 -65 23 -12 56 -28 75 -35 l33 -13 -40 -6 -40 -6 41 -8 c22 -4 57 -18
78 -32 42 -28 61 -33 31 -7 -11 9 -21 29 -21 45 -1 22 6 31 33 44 45 21 64 6
39 -32 -12 -18 -15 -36 -10 -62 7 -36 6 -36 -22 -29 -16 4 -47 16 -69 28 l-40
20 20 -22 c24 -26 87 -60 113 -60 10 0 27 -7 38 -15 22 -17 15 -19 -21 -5 -41
16 -20 -7 33 -36 l47 -25 -40 6 c-67 10 -155 60 -250 142 -87 75 -89 76 -51
27 37 -47 36 -47 -20 11 -33 34 -81 76 -109 95 l-50 34 28 -34 c16 -19 55 -70
88 -113 71 -91 83 -100 168 -122 98 -25 186 -69 261 -130 82 -65 121 -113 189
-224 52 -86 63 -113 36 -91 -19 16 -19 11 5 -84 11 -44 18 -81 15 -84 -5 -5
-42 73 -90 192 -16 38 -42 87 -59 109 -34 44 -119 107 -144 107 -9 0 4 -13 29
-28 81 -52 131 -127 186 -279 46 -130 73 -252 73 -338 0 -73 -12 -112 -24 -80
-3 9 -4 26 -2 38 1 12 1 16 -1 9 -3 -8 -24 20 -47 62 -57 99 -105 163 -164
218 -54 51 -145 113 -181 123 -39 12 -16 -10 59 -54 133 -79 240 -201 297
-336 20 -48 28 -102 24 -175 -2 -30 -5 -24 -21 37 -10 40 -24 83 -31 95 -31
61 -102 147 -141 173 -23 16 -60 40 -82 54 -21 14 -33 27 -27 29 13 4 108 -55
150 -92 13 -11 22 -15 20 -8 -8 25 -83 108 -139 152 -30 25 -76 66 -102 91
-27 25 -48 44 -48 41 0 -2 -7 1 -15 8 -9 8 -5 -8 11 -38 26 -51 26 -53 10 -95
-16 -42 -16 -42 -61 -39 -25 2 -45 6 -45 8 0 1 7 29 15 61 21 79 18 110 -4 43
-30 -94 -35 -100 -91 -100 l-49 0 30 58 c40 77 54 166 43 267 l-8 80 -6 -115
c-5 -95 -10 -125 -31 -170 -29 -61 -74 -114 -89 -105 -5 3 -18 36 -30 74 -17
57 -89 181 -106 181 -6 0 1 -12 38 -67 33 -48 43 -90 33 -130 -6 -26 -8 -24
-26 32 -13 44 -33 77 -77 126 -86 97 -102 123 -102 163 0 44 29 76 68 76 34 0
86 31 108 65 22 33 38 32 29 -2 -10 -41 -43 -72 -95 -88 -43 -13 -44 -14 -12
-14 67 -2 142 61 142 118 0 12 3 21 8 21 4 0 18 10 32 21 l25 20 -23 -6 c-24
-7 -138 10 -180 26 -17 6 -30 4 -50 -9 l-27 -17 23 29 c32 41 29 92 -8 148
-45 67 -64 68 -29 1 38 -72 37 -109 -8 -207 -36 -81 -46 -144 -29 -193 8 -21
7 -22 -25 -12 -65 19 -165 -15 -190 -64 l-12 -22 24 22 c35 32 92 53 142 53
41 0 46 -3 118 -82 82 -90 109 -126 109 -146 0 -9 -12 -4 -31 12 -17 15 -45
33 -63 42 -31 14 -31 14 -6 -3 51 -35 120 -113 120 -135 0 -56 -68 -123 -167
-164 -72 -29 -45 -32 33 -3 62 23 144 94 144 125 0 16 2 17 10 4 5 -8 10 -36
10 -62 0 -40 -4 -50 -31 -72 -44 -37 -93 -56 -169 -66 l-65 -7 60 -2 c73 -1
121 11 169 44 25 17 36 20 36 11 0 -9 28 -20 76 -32 51 -12 104 -34 160 -67
46 -28 82 -52 79 -55 -2 -2 -41 16 -87 41 -46 24 -109 52 -140 61 -32 9 -64
19 -72 22 -9 3 -19 -5 -28 -23 -19 -40 -77 -65 -152 -65 -34 0 -73 3 -87 6
-20 6 -21 5 -6 -4 9 -6 48 -14 85 -16 58 -5 73 -2 116 20 l49 25 74 -34 c41
-19 91 -47 111 -63 71 -56 162 -116 162 -108 0 3 -26 25 -58 50 -40 31 -63 57
-74 85 l-17 41 42 -22 c81 -45 128 -104 169 -213 l19 -50 -5 45 c-3 24 -20 75
-39 112 -20 38 -33 68 -29 68 20 0 93 -55 116 -88 67 -98 84 -214 43 -308 -24
-55 -64 -116 -52 -79 4 11 9 58 10 105 l4 85 -9 -65 c-5 -35 -23 -92 -41 -128
-34 -70 -47 -78 -25 -14 8 22 17 62 20 89 l6 48 -15 -54 c-20 -70 -46 -112
-114 -184 -78 -82 -94 -89 -63 -26 13 28 22 53 19 55 -2 2 -18 -17 -35 -44
-39 -60 -107 -126 -99 -97 33 126 39 172 33 239 -4 39 -8 94 -10 121 -2 28
-20 95 -40 149 -31 85 -33 97 -16 81 39 -35 76 -137 94 -255 2 -14 4 2 5 35 1
69 -26 177 -69 271 -16 35 -27 64 -24 64 2 0 30 -39 61 -87 31 -49 69 -103 86
-122 41 -48 66 -108 68 -161 l1 -45 9 40 c13 54 -5 154 -41 231 -28 57 -70
110 -70 86 0 -6 5 -14 10 -17 11 -7 53 -85 46 -85 -8 0 -68 101 -63 106 6 6
-51 59 -62 59 -3 0 -37 17 -74 39 -38 21 -71 36 -74 33 -2 -3 -12 -20 -21 -39
-20 -40 -90 -78 -142 -78 -55 0 -144 26 -205 61 -49 27 -55 35 -55 62 0 61 79
154 148 175 22 7 50 24 61 39 25 30 51 114 51 157 -1 31 -1 30 -25 -15 -33
-63 -49 -75 -81 -60 -20 9 -36 8 -77 -4 -66 -19 -124 -19 -202 2 -58 15 -65
15 -88 0 -23 -15 -26 -15 -40 1 -9 9 -27 37 -41 62 l-26 45 0 -31 c0 -79 50
-158 125 -196 93 -48 155 -119 155 -177 0 -30 -5 -34 -73 -67 -110 -52 -217
-64 -282 -31 -52 25 -104 100 -57 82 39 -15 118 -25 151 -19 66 12 61 20 -8
16 -90 -5 -168 19 -182 55 -5 14 -8 27 -6 29 1 2 21 -3 42 -11 24 -8 75 -14
125 -13 l85 1 -79 8 c-140 15 -186 39 -186 96 0 19 3 33 8 31 4 -2 30 -15 58
-30 45 -23 193 -63 202 -53 2 2 -23 10 -55 19 -98 28 -144 48 -176 76 -27 24
-29 31 -23 64 l7 38 42 -45 c23 -25 61 -54 84 -66 61 -31 65 -26 7 10 -61 38
-113 96 -114 127 0 30 70 105 123 131 23 12 36 21 29 21 -42 0 -142 -73 -170
-125 -11 -19 -11 -19 -12 3 0 44 32 92 99 148 36 30 67 50 69 44 2 -6 10 -3
18 8 16 24 74 52 106 52 46 0 98 -21 133 -54 35 -33 44 -32 25 5 -14 26 -80
58 -132 65 -32 4 -53 0 -82 -15 -22 -11 -42 -19 -44 -16 -3 2 1 25 8 50 17 62
8 116 -34 196 -20 38 -36 81 -36 96 0 35 34 110 62 141 12 12 17 22 12 22 -16
0 -82 -73 -93 -103 -14 -36 -14 -83 -1 -108 13 -23 13 -23 -40 -4 -24 8 -45
13 -48 10 -3 -3 0 -5 7 -5 7 0 10 -4 7 -9 -9 -14 -132 -34 -158 -26 -20 7 -21
6 -10 -8 8 -9 22 -19 33 -22 10 -4 27 -25 37 -48 28 -61 60 -86 118 -93 l49
-5 -54 23 c-42 18 -59 32 -74 61 -27 53 -14 58 31 10 27 -30 48 -43 77 -48 81
-13 88 -19 83 -77 -5 -51 -8 -54 -101 -143 -96 -90 -117 -121 -131 -197 -10
-55 -37 -50 -82 15 -35 51 -39 36 -7 -26 l14 -28 -33 3 c-30 3 -33 7 -50 63
-10 33 -22 105 -27 160 l-8 100 -2 -126 c-1 -88 3 -139 14 -168 8 -22 10 -41
6 -41 -5 0 -22 -3 -38 -6 -29 -6 -31 -3 -57 58 -15 35 -33 100 -41 143 -13 77
-14 78 -13 25 2 -61 22 -149 45 -193 18 -36 11 -43 -50 -52 l-48 -6 7 48 c4
26 13 65 20 87 8 21 14 40 14 42 0 3 -17 -4 -38 -15 -58 -30 -154 -105 -181
-143 l-24 -33 39 36 c21 20 62 51 89 70 l50 33 -56 -62 c-31 -34 -68 -85 -83
-114 -15 -29 -20 -44 -12 -34 9 11 16 17 16 13 0 -4 18 2 39 12 49 26 176 61
217 61 17 0 38 -8 47 -18 16 -17 14 -19 -43 -30 -32 -7 -65 -18 -72 -25 -7 -7
-23 -13 -36 -14 -25 -2 -132 -48 -132 -58 0 -3 9 -1 20 5 27 14 201 52 208 45
3 -3 -2 -5 -12 -5 -9 0 -15 -4 -12 -9 4 -5 -3 -7 -13 -4 -11 3 -28 0 -38 -6
-14 -8 -14 -10 -3 -11 8 0 -12 -13 -46 -29 -73 -35 -129 -88 -156 -149 -12
-26 -25 -91 -32 -156 l-12 -111 -17 44 c-10 25 -23 79 -29 122 -11 69 -10 82
9 135 34 98 35 101 3 39 -16 -33 -30 -66 -30 -72 0 -7 -4 -13 -9 -13 -24 0 14
156 55 224 l25 41 -32 -35 c-17 -19 -42 -57 -55 -85 l-25 -50 6 72 c7 79 46
236 71 284 10 19 11 28 4 24 -34 -21 -89 -185 -111 -325 -14 -97 -25 -117 -35
-66 -27 145 52 500 124 556 l25 20 -27 0 -27 0 28 52 c39 72 117 155 173 183
26 13 89 36 140 50 85 24 219 83 161 71 -23 -5 -23 -4 7 27 16 18 50 60 73 94
24 33 64 85 89 114 l45 53 -83 -43 c-60 -32 -95 -58 -132 -101 -27 -31 -76
-77 -107 -101 -32 -24 -74 -57 -93 -73 -33 -28 -109 -67 -160 -81 -14 -4 16
22 65 58 94 68 166 136 132 124 -11 -4 -29 -10 -42 -13 -13 -3 -26 -12 -29
-19 -3 -9 2 -11 17 -7 12 3 19 2 16 -2 -3 -4 -23 -9 -43 -11 l-36 -5 15 30
c15 28 15 34 0 63 -14 28 -14 33 -1 43 13 9 10 16 -20 45 -50 48 -76 103 -81
174 -13 152 55 217 222 212 62 -2 91 -8 128 -27z m1515 -147 c-10 -2 -26 -2
-35 0 -10 3 -2 5 17 5 19 0 27 -2 18 -5z m179 -70 c-3 -10 -5 -2 -5 17 0 19 2
27 5 18 2 -10 2 -26 0 -35z m-32 -92 c-3 -6 -16 -16 -28 -22 -21 -11 -21 -10
2 15 23 25 40 29 26 7z m-1626 6 c-25 -20 -99 -56 -99 -48 0 13 62 51 84 51
11 0 17 -1 15 -3z m1410 -27 c24 -11 42 -23 39 -26 -5 -4 -107 32 -117 42 -12
12 40 1 78 -16z m-1394 -81 c-20 -37 -81 -106 -108 -120 -10 -6 11 26 48 70
37 45 69 81 71 81 3 0 -3 -14 -11 -31z m1748 -18 c29 -27 67 -76 86 -108 19
-32 47 -80 63 -107 l29 -50 -45 38 c-25 20 -46 34 -46 29 0 -4 18 -32 40 -60
22 -29 35 -53 29 -53 -6 0 6 -21 26 -47 56 -74 113 -199 125 -277 6 -38 9 -70
7 -72 -2 -3 -16 24 -31 58 -67 155 -102 213 -166 278 -36 37 -76 74 -90 84
-25 17 -25 17 23 11 52 -7 61 4 22 29 -14 9 -51 41 -82 72 -46 44 -54 57 -43
64 21 13 43 12 60 -2 8 -7 7 -4 -2 6 -9 11 -29 20 -44 22 -15 2 -32 8 -38 15
-8 8 -5 10 14 5 23 -6 23 -6 5 5 -29 17 -29 17 -15 34 7 9 10 27 6 45 -8 42 7
38 67 -19z m-1435 -218 c-10 -2 -18 -11 -18 -19 0 -19 29 -18 36 1 9 23 24 7
24 -26 0 -27 -3 -29 -38 -29 -43 0 -62 14 -62 45 0 29 8 35 44 34 17 -1 23 -3
14 -6z m780 -25 c5 -46 -59 -76 -92 -42 -21 20 -20 30 5 55 14 14 30 19 52 17
26 -2 33 -8 35 -30z m970 -515 c68 -114 77 -160 75 -373 -1 -131 -6 -198 -16
-230 -12 -35 -15 -40 -17 -20 -1 14 -7 40 -13 57 -11 29 -12 20 -12 -70 0 -65
-5 -109 -13 -122 -11 -18 -12 -17 -6 9 4 15 1 127 -6 247 -7 121 -11 222 -8
224 3 3 17 -29 31 -72 15 -43 26 -71 27 -62 0 24 -28 113 -55 171 -14 29 -25
59 -25 66 0 23 19 12 46 -25 14 -21 23 -29 20 -18 -3 11 -14 61 -25 111 -11
50 -29 112 -41 138 -27 64 -11 51 38 -31z m-1415 -33 c40 -6 74 -5 123 6 76
15 90 13 47 -9 -30 -16 -66 -72 -77 -121 -9 -38 -14 -31 -24 35 l-8 54 -14
-58 c-7 -32 -18 -56 -23 -54 -6 2 -16 21 -22 44 -15 50 -35 80 -72 105 -22 16
-24 18 -6 13 11 -3 46 -10 76 -15z m-638 -32 c14 -21 14 -23 -2 -30 -30 -11
-41 -9 -63 14 -19 21 -20 23 -3 30 32 12 52 8 68 -14z m174 18 c-3 -3 -34 -10
-69 -15 -54 -9 -67 -8 -79 4 -14 13 -6 15 69 15 46 0 81 -2 79 -4z m1199 -11
c1 -1 -7 -14 -19 -28 -17 -22 -18 -27 -5 -27 9 0 23 11 32 25 14 21 24 25 68
25 l51 0 -41 -40 -40 -40 -74 14 c-41 9 -102 20 -135 25 l-60 10 77 -4 c77 -5
77 -4 61 15 -14 16 -31 20 -78 21 -44 1 -53 3 -35 9 21 6 189 2 198 -5z
m-1688 -9 c0 -2 -18 -19 -40 -36 -22 -17 -40 -28 -40 -22 0 5 17 21 37 35 39
28 43 30 43 23z m1970 -53 c123 -60 212 -165 226 -266 6 -42 -13 -153 -35
-208 -8 -20 -10 -14 -10 32 -1 31 -10 87 -22 124 -17 56 -31 78 -90 140 -80
84 -135 120 -208 137 -28 6 -51 14 -51 18 0 7 69 -2 133 -16 52 -11 27 5 -42
27 -63 20 -68 24 -58 41 16 26 61 18 157 -29z m-1484 18 c-3 -4 -27 -11 -53
-15 -26 -3 -92 -14 -145 -24 -54 -10 -98 -15 -98 -10 0 4 6 8 13 9 6 0 62 11
122 24 116 25 170 31 161 16z m-281 -27 c-33 -7 -67 -13 -75 -12 -23 1 82 26
110 26 14 0 -2 -6 -35 -14z m2155 -16 c0 -6 -6 -5 -15 2 -8 7 -15 14 -15 16 0
2 7 1 15 -2 8 -4 15 -11 15 -16z m-1873 -4 c-10 -10 -173 -40 -188 -35 -8 3
27 13 76 22 104 19 121 21 112 13z m1245 -18 c117 -25 210 -56 244 -80 10 -8
-26 1 -80 20 -88 31 -270 66 -391 77 -22 2 -5 4 37 5 50 1 118 -7 190 -22z
m-1275 -12 c-3 -3 -12 -4 -19 -1 -8 3 -5 6 6 6 11 1 17 -2 13 -5z m-170 -15
c9 -9 23 -9 57 0 89 22 69 9 -29 -19 -55 -16 -102 -27 -104 -24 -2 2 2 4 10 4
11 0 11 2 -1 10 -20 13 -33 13 -25 0 3 -6 -1 -7 -9 -4 -9 3 -16 1 -16 -6 0 -6
-4 -8 -10 -5 -5 3 -10 2 -10 -3 0 -5 -10 -10 -22 -10 -26 0 -132 -45 -141 -59
-4 -6 15 1 40 14 26 12 60 23 77 23 l30 0 -23 -16 c-18 -13 -51 -69 -51 -86 0
-2 47 20 104 48 100 49 295 124 319 124 7 -1 -47 -25 -118 -54 -301 -122 -410
-249 -361 -421 22 -75 28 -67 9 11 -19 77 -7 124 47 193 43 55 93 90 177 127
l53 24 -45 -55 c-63 -78 -74 -103 -21 -51 38 39 186 126 186 111 0 -3 21 6 48
21 l47 27 -30 -26 c-16 -15 -33 -26 -36 -27 -4 0 -41 -45 -83 -100 -78 -103
-107 -169 -105 -239 0 -20 3 -29 6 -21 3 8 22 33 42 55 27 30 29 34 7 15 l-29
-25 22 40 c12 22 44 65 72 95 43 49 50 53 60 38 5 -10 18 -18 28 -18 17 0 16
-6 -11 -72 -76 -185 -88 -326 -39 -466 17 -48 23 -78 16 -72 -27 23 -89 121
-107 172 -18 50 -19 50 -13 13 8 -47 39 -124 73 -180 l24 -40 -35 34 c-56 53
-91 141 -92 228 0 66 -1 70 -13 46 -15 -27 -13 -158 2 -198 5 -13 -4 -7 -24
15 -52 57 -87 144 -108 270 l-20 115 -1 -66 c-1 -59 9 -138 25 -194 4 -13 -2
-10 -15 10 -29 42 -61 143 -71 223 l-7 67 -2 -91 c-1 -62 4 -104 14 -130 15
-36 15 -38 -1 -19 -9 11 -32 53 -52 94 -29 60 -36 89 -40 155 -4 56 -8 73 -13
56 -11 -37 -10 -131 1 -169 15 -53 6 -47 -30 21 -27 51 -34 77 -38 138 -6 100
19 161 93 228 87 80 273 140 312 101z m1317 -5 c55 -8 123 -22 150 -30 27 -8
51 -12 53 -10 5 5 -62 36 -78 36 -7 0 -10 3 -7 6 9 9 210 -56 243 -79 139 -94
191 -228 151 -387 -9 -36 -20 -68 -24 -72 -4 -4 -7 32 -7 80 0 69 -5 98 -24
139 -13 29 -29 57 -36 63 -7 6 -5 -6 6 -27 33 -67 44 -148 30 -216 -10 -50
-45 -137 -54 -137 -1 0 -2 60 -2 133 0 123 -2 136 -28 192 -33 71 -62 103
-137 155 -57 39 -100 80 -84 80 15 0 133 -39 155 -51 12 -6 39 -27 62 -46 23
-20 15 -9 -18 23 -51 50 -73 63 -140 86 -44 14 -136 36 -205 48 -115 21 -153
30 -120 30 7 0 58 -7 114 -16z m-88 -59 c42 -17 97 -55 90 -62 -2 -3 -20 7
-39 21 -18 14 -51 32 -73 40 -21 8 -33 15 -26 15 7 1 29 -6 48 -14z m-1349
-11 c-3 -3 -12 -4 -19 -1 -8 3 -5 6 6 6 11 1 17 -2 13 -5z m23 -8 c0 -2 -23
-20 -51 -40 -37 -28 -47 -32 -39 -16 6 11 27 29 48 39 41 22 42 23 42 17z
m285 -75 c-6 -4 -30 -25 -55 -46 l-45 -37 48 46 c27 25 52 46 55 46 3 0 2 -4
-3 -9z m425 -61 c0 -5 -4 -10 -10 -10 -5 0 -10 5 -10 10 0 6 5 10 10 10 6 0
10 -4 10 -10z m97 -8 c35 -3 58 0 68 8 18 15 30 7 22 -14 -4 -11 -24 -14 -89
-13 -73 2 -83 4 -86 21 -3 15 0 17 14 11 11 -4 43 -10 71 -13z m130 -14 c-3
-7 -5 -2 -5 12 0 14 2 19 5 13 2 -7 2 -19 0 -25z m-303 -40 c-8 -35 -14 -80
-14 -101 0 -21 -4 -36 -9 -33 -12 8 -43 111 -45 149 -1 27 3 32 29 38 53 12
52 13 39 -53z m456 32 c0 -15 -41 -136 -53 -158 -12 -22 -15 -16 -25 65 -6 48
-13 95 -17 104 -5 15 0 15 44 6 28 -5 51 -13 51 -17z m93 -47 c-19 -106 -23
-112 -16 -23 5 63 15 100 28 100 1 0 -4 -35 -12 -77z m-653 -20 c-1 -94 -9
-95 -30 -3 -6 30 -14 63 -17 73 -3 13 2 17 21 17 26 0 26 0 26 -87z m1590 -12
c7 -33 10 -88 8 -123 -4 -58 -4 -61 8 -33 7 17 13 36 14 43 1 32 20 -3 20 -37
0 -117 -53 -289 -114 -366 -15 -19 -15 -18 -11 15 3 19 -6 0 -19 -43 -16 -48
-57 -131 -110 -220 -68 -113 -102 -158 -167 -222 -85 -83 -87 -70 -5 37 l38
52 -41 -34 c-23 -18 -54 -48 -69 -68 -15 -19 -35 -43 -44 -53 -10 -11 -18 -23
-18 -28 0 -5 -8 -15 -17 -22 -15 -12 -16 -12 -9 6 5 11 9 29 11 40 1 11 3 24
4 28 0 5 5 5 11 2 5 -3 7 0 5 8 -6 15 31 105 65 158 12 19 19 26 16 17 -16
-47 -16 -50 2 -18 11 19 34 75 51 123 18 48 39 100 47 115 14 25 15 23 8 -38
-3 -36 -13 -85 -20 -110 -7 -24 -11 -46 -9 -48 2 -2 7 7 11 22 3 14 10 24 14
21 5 -3 6 5 2 17 -3 13 -1 19 5 15 14 -9 34 63 43 153 4 41 13 76 18 78 6 2 8
10 5 19 -4 10 -2 14 4 10 12 -8 36 58 48 127 3 21 22 69 41 106 18 36 38 84
44 106 7 31 9 15 5 -71 -4 -109 -34 -253 -70 -339 -29 -69 -7 -49 29 27 63
130 82 233 86 466 1 14 2 14 11 -2 6 -10 14 -55 18 -100 l8 -82 1 70 c1 39 -3
90 -9 114 -10 45 -3 134 11 126 4 -2 13 -31 20 -64z m-752 -79 c11 -26 23 -65
26 -87 l7 -40 -20 45 c-49 114 -62 153 -48 141 8 -6 24 -33 35 -59z m1093 -80
c128 -117 173 -228 195 -472 8 -91 18 -192 23 -225 8 -55 9 -57 11 -20 2 22 2
83 1 135 l-2 95 46 -50 c25 -27 59 -77 76 -110 36 -73 111 -367 135 -526 23
-159 15 -385 -20 -521 -13 -54 -27 -117 -30 -140 l-6 -43 15 30 c8 17 14 39
15 50 1 34 15 -3 29 -76 12 -61 11 -70 -8 -115 l-21 -49 20 -99 c24 -115 25
-149 3 -86 -31 88 -69 121 -176 150 -26 7 -50 17 -53 21 -8 13 54 11 79 -3 19
-10 20 -9 9 4 -19 23 -57 30 -102 18 -51 -14 -89 -5 -83 19 4 16 13 18 72 13
51 -3 75 0 100 13 18 9 31 18 29 19 -1 2 -30 -1 -63 -7 -48 -8 -67 -7 -89 4
-41 20 -54 44 -38 70 12 18 11 20 -5 17 -15 -3 -19 -16 -23 -70 -3 -36 -7 -69
-10 -71 -3 -3 -27 -10 -55 -15 -27 -5 -56 -11 -63 -13 -22 -6 -50 81 -73 219
-19 113 -19 135 -8 195 10 53 10 76 1 101 -7 18 -12 39 -12 48 0 16 37 54 45
46 3 -3 10 -41 15 -84 9 -77 33 -173 64 -262 9 -24 15 -48 13 -55 -3 -18 69
-38 99 -27 14 6 50 10 81 10 98 0 147 51 184 194 28 106 44 286 33 381 l-8 80
-7 -145 c-7 -146 -27 -271 -56 -342 -41 -102 -221 -193 -287 -145 -17 13 -16
15 18 35 60 36 70 72 62 237 -20 454 -20 431 -1 502 16 57 27 76 71 120 57 57
58 61 15 39 -62 -32 -125 -120 -171 -237 -22 -54 -89 -163 -97 -155 -2 2 5 34
16 71 12 37 21 81 20 99 0 22 -4 14 -14 -29 -36 -165 -118 -299 -275 -453 -41
-40 -125 -91 -202 -121 -72 -28 -138 -47 -138 -38 0 14 23 67 29 67 4 0 8 6 8
13 0 23 87 217 98 217 5 0 21 33 34 72 20 63 32 80 100 147 90 90 183 223 211
304 27 77 43 198 35 268 l-7 57 63 79 c111 139 129 207 88 338 -11 37 -22 65
-25 63 -2 -2 1 -20 7 -39 5 -19 11 -68 11 -109 2 -94 -26 -159 -100 -240 l-51
-55 -1 30 c-1 17 -7 48 -15 70 -11 35 -12 23 -7 -110 3 -97 0 -176 -8 -223
-14 -87 -79 -224 -116 -249 -16 -10 -21 -19 -14 -23 12 -7 -43 -82 -97 -133
l-30 -28 5 121 c4 101 1 142 -18 243 -26 133 -39 142 -20 14 22 -151 5 -388
-34 -492 l-16 -40 8 40 c4 22 6 92 6 155 -1 95 -6 129 -28 197 -15 45 -31 85
-36 88 -5 3 -3 -11 4 -32 27 -77 39 -179 34 -299 -6 -142 -29 -218 -133 -444
-128 -277 -158 -402 -139 -577 14 -136 11 -143 -62 -163 l-61 -16 -6 62 c-6
65 -24 111 -51 133 -19 16 -19 16 -1 -34 8 -22 14 -69 15 -106 l0 -65 -68 -22
c-38 -12 -76 -22 -85 -22 -24 0 -31 39 -24 134 5 79 5 80 -10 46 -9 -19 -19
-57 -24 -85 -7 -43 -8 -40 -4 23 3 40 11 90 19 112 18 52 6 51 -24 -2 -20 -35
-25 -57 -25 -118 0 -41 3 -87 7 -102 8 -26 8 -26 -58 -33 -59 -7 -67 -5 -89
15 -35 33 -48 83 -43 160 4 48 13 82 31 114 14 25 22 46 17 46 -18 0 -67 -70
-79 -113 -13 -46 -11 -158 4 -204 7 -22 5 -23 -48 -23 -77 0 -105 13 -124 57
-28 67 -12 153 43 238 l19 30 -25 -16 c-62 -40 -91 -128 -72 -222 6 -29 9 -54
7 -55 -2 -2 -13 15 -25 39 -33 63 -31 166 3 217 35 54 85 76 156 69 52 -5 54
-5 31 8 -14 8 -37 14 -52 15 l-28 0 34 47 c19 27 42 68 52 93 18 47 44 87 117
182 25 31 93 152 152 270 135 266 188 350 310 480 53 56 108 120 122 141 14
20 28 35 30 33 6 -6 -16 -75 -34 -106 -8 -14 9 0 37 30 54 58 126 161 166 238
l25 47 -7 -67 c-3 -38 -4 -68 0 -68 3 0 15 33 27 73 12 39 30 88 39 107 32 65
58 155 70 239 6 46 18 93 25 105 8 11 19 53 25 91 7 39 20 86 30 105 10 19 23
53 30 75 6 22 21 58 31 81 10 22 19 48 19 56 0 48 11 49 73 5 33 -23 87 -66
118 -95z m-1684 77 c13 -5 23 -19 26 -36 l4 -28 14 33 c13 32 15 33 68 30 38
-2 57 -8 65 -20 16 -27 -22 -70 -81 -91 -58 -21 -105 -14 -164 26 -28 19 -35
30 -37 64 l-3 41 43 -5 c24 -3 53 -9 65 -14z m380 -26 c-3 -10 -5 -4 -5 12 0
17 2 24 5 18 2 -7 2 -21 0 -30z m194 -107 c37 -78 47 -161 28 -226 -7 -25 -14
-53 -15 -62 -2 -26 -32 -68 -123 -172 -46 -53 -85 -96 -86 -96 -1 0 9 21 22
48 34 70 53 186 53 333 0 71 3 129 8 129 4 0 14 -14 21 -32 23 -50 24 -16 2
41 -24 63 -5 52 29 -16 47 -94 34 -233 -31 -340 l-30 -48 31 35 c39 44 61 113
67 212 5 64 1 91 -22 170 -15 51 -30 107 -33 123 l-5 30 27 -32 c14 -17 40
-61 57 -97z m-1063 26 c-42 -82 -49 -121 -9 -60 23 37 28 27 6 -12 -8 -14 -14
-29 -14 -35 -1 -5 13 15 30 45 16 30 37 62 46 70 14 13 15 13 7 0 -10 -18 -7
-233 5 -280 l9 -35 1 45 c2 64 12 120 22 120 5 0 9 -37 9 -82 0 -67 6 -99 36
-186 20 -58 50 -130 66 -159 17 -30 28 -56 25 -59 -10 -10 -77 47 -124 104
-56 69 -90 128 -120 206 -16 41 -21 49 -17 26 8 -42 48 -142 77 -189 33 -55 1
-25 -41 37 -71 106 -87 155 -87 267 0 83 4 107 23 145 23 48 81 124 88 117 3
-2 -14 -41 -38 -85z m859 16 c-3 -7 -5 -2 -5 12 0 14 2 19 5 13 2 -7 2 -19 0
-25z m-361 -53 c39 -5 63 -2 104 14 30 11 56 19 58 17 2 -2 -6 -27 -19 -55
l-21 -51 -83 0 -83 0 -21 49 c-26 60 -26 69 -3 49 9 -9 40 -19 68 -23z m351 3
c-3 -7 -5 -2 -5 12 0 14 2 19 5 13 2 -7 2 -19 0 -25z m-434 -80 l10 21 19 -24
c17 -21 26 -24 90 -24 87 0 104 9 129 62 l19 42 0 -52 c0 -28 -5 -55 -11 -59
-7 -4 -77 -8 -156 -9 -162 -2 -163 -2 -163 73 0 58 12 59 34 1 18 -46 21 -50
29 -31z m-176 40 c-3 -8 -6 -5 -6 6 -1 11 2 17 5 13 3 -3 4 -12 1 -19z m521
-23 c-11 -25 -13 -25 -25 -9 -17 23 -17 35 1 28 8 -3 17 0 21 6 13 21 16 3 3
-25z m-1223 -186 c22 -145 63 -252 124 -321 28 -32 121 -104 121 -94 0 3 -14
29 -31 58 -60 101 -102 253 -83 302 5 14 15 2 44 -53 45 -84 87 -142 209 -281
51 -58 97 -113 103 -123 19 -36 -25 -1 -98 75 -82 87 -156 193 -213 303 -50
98 -54 91 -6 -12 66 -144 198 -317 293 -388 37 -27 69 -72 59 -81 -2 -3 -17 5
-33 17 l-29 21 27 -25 c16 -14 34 -30 42 -34 12 -7 44 -70 92 -181 15 -33 14
-33 -7 -21 -12 6 -42 30 -67 53 -35 31 -28 20 28 -45 41 -48 83 -101 94 -119
l18 -32 -23 13 c-13 6 -58 46 -100 88 -58 58 -84 94 -111 151 -19 41 -40 86
-46 100 -10 21 -11 17 -6 -29 7 -63 35 -150 64 -198 11 -19 16 -32 12 -29 -13
8 -121 162 -153 218 -29 51 -31 37 -3 -29 25 -62 3 -33 -31 40 -36 78 -68 177
-63 197 2 7 -23 33 -56 58 -97 75 -190 218 -222 341 -9 38 -14 94 -12 157 l3
99 23 -49 c12 -27 29 -93 37 -147z m1286 65 c-4 -49 -15 -103 -24 -119 -16
-30 -16 -30 -17 -5 0 25 0 25 -19 -5 -10 -16 -30 -41 -45 -54 l-26 -24 0 29
c0 28 -1 27 -34 -21 -18 -28 -45 -61 -59 -74 l-26 -24 19 39 c11 21 20 47 20
58 0 19 -1 19 -23 -2 -17 -16 -26 -19 -34 -11 -8 8 -14 5 -23 -11 -12 -22 -12
-22 -51 16 -41 40 -49 34 -23 -19 l15 -32 -32 34 -32 34 5 -36 c4 -33 3 -35
-13 -21 -9 8 -25 30 -35 49 -22 42 -33 45 -27 8 l5 -28 -21 25 c-12 14 -24 35
-27 48 -7 26 -21 29 -27 5 -3 -13 -9 -7 -22 22 -13 26 -20 69 -22 125 l-3 85
15 -45 c30 -88 62 -110 145 -97 50 8 67 7 98 -7 35 -16 41 -16 85 -1 26 9 56
13 66 10 79 -25 147 12 177 94 10 28 19 49 21 48 1 -2 -1 -44 -6 -93z m99
-130 c-5 -39 -14 -81 -20 -95 -8 -19 -9 -14 -4 26 4 28 8 95 10 150 1 55 4
102 5 105 1 3 5 -22 10 -55 6 -36 5 -88 -1 -131z m697 164 c-3 -8 -6 -5 -6 6
-1 11 2 17 5 13 3 -3 4 -12 1 -19z m-926 -1 c-7 -7 -274 -13 -311 -6 -8 1 8 5
35 9 66 10 286 7 276 -3z m909 -77 l-11 -25 6 25 c2 14 5 34 6 45 2 19 2 19 6
0 2 -12 -1 -32 -7 -45z m-1412 -170 l-3 -55 -22 85 c-12 47 -25 110 -28 140
l-6 55 31 -85 c23 -64 30 -98 28 -140z m678 15 c-31 -127 -59 -195 -93 -227
-25 -23 -25 -23 5 37 43 88 75 182 69 204 -3 11 -1 21 3 23 4 2 10 31 12 64 7
78 22 105 26 47 2 -23 -8 -90 -22 -148z m960 137 c-17 -16 -18 -16 -5 5 7 12
15 20 18 17 3 -2 -3 -12 -13 -22z m-976 -66 c0 -2 -7 -9 -15 -16 -13 -11 -14
-10 -9 4 5 14 24 23 24 12z m504 -38 c-10 -60 -66 -222 -91 -265 -31 -56 -23
-55 18 2 18 25 34 44 36 42 12 -13 -122 -287 -141 -287 -2 0 4 24 15 53 10 28
13 43 6 33 -6 -11 -39 -59 -72 -108 -33 -49 -79 -119 -102 -155 l-42 -66 6 89
c5 83 4 88 -11 69 -10 -13 -8 -2 7 30 39 85 54 110 107 176 l52 64 -62 -65
-62 -65 40 60 c22 33 56 80 75 105 20 24 34 47 32 50 -2 3 9 19 23 36 15 16
23 23 17 14 -9 -13 -8 -13 7 -2 9 8 15 19 12 26 -3 7 3 19 12 27 16 12 17 12
9 -1 -5 -9 -5 -12 1 -7 5 5 10 13 10 18 3 20 6 25 30 54 15 17 23 24 19 16 -6
-9 -4 -12 4 -7 6 4 9 11 6 16 -5 7 34 79 42 80 1 0 0 -15 -3 -32z m415 -98
l-13 -55 -7 56 c-4 30 -9 62 -11 70 -2 8 3 13 12 11 8 -2 12 0 8 4 -4 4 -2 14
5 22 10 13 13 10 15 -19 2 -19 -2 -59 -9 -89z m-929 74 c0 -8 -27 -66 -60
-129 -55 -106 -115 -274 -107 -299 2 -6 12 4 22 23 9 19 25 42 34 50 9 9 11
12 4 7 -16 -10 -17 -1 -2 26 8 16 104 68 124 68 7 0 -4 -72 -20 -137 -7 -29
-11 -53 -9 -53 7 0 58 106 79 165 18 51 28 64 74 96 29 20 71 54 93 75 l40 39
-27 -55 c-40 -81 -99 -165 -178 -253 -70 -78 -67 -88 9 -36 l42 28 -44 -81
c-38 -70 -40 -78 -18 -57 23 21 22 16 -12 -40 -96 -165 -223 -481 -224 -556 0
-43 -19 -11 -21 35 l-1 35 -8 -30 c-7 -29 -8 -27 -46 50 -35 72 -39 88 -39
155 1 121 73 297 190 460 52 73 51 78 -7 22 -30 -29 -57 -49 -61 -46 -4 4 -7
-1 -7 -11 0 -9 -16 -43 -34 -74 -29 -47 -64 -126 -99 -221 -3 -8 -4 80 -3 195
3 153 7 221 18 249 12 33 16 36 22 20 6 -16 12 -10 38 34 25 43 33 51 44 41
17 -14 14 -17 49 48 15 29 37 61 48 70 16 15 14 6 -10 -42 -34 -67 -68 -164
-60 -171 2 -3 15 24 27 58 32 88 102 242 112 246 4 2 6 8 3 13 -4 5 1 6 9 3 9
-3 16 -12 16 -20z m-586 -38 c11 -18 13 -27 4 -32 -6 -4 -8 -3 -4 4 3 6 2 13
-4 17 -6 4 -10 -5 -10 -19 0 -28 9 -33 28 -14 9 9 12 5 12 -17 0 -58 62 -222
129 -345 44 -82 49 -85 25 -19 -8 24 -27 93 -40 154 -14 60 -28 112 -31 115
-3 3 -3 -23 -1 -58 5 -75 -3 -63 -32 42 -22 79 -21 106 3 106 14 0 87 -107
117 -172 11 -25 20 -35 20 -24 0 11 3 16 8 12 4 -4 10 -65 14 -134 3 -70 10
-187 14 -259 8 -144 -3 -176 -25 -75 -16 72 -87 253 -150 381 -26 53 -56 129
-66 169 -10 39 -22 69 -26 67 -12 -8 -21 85 -10 99 6 7 8 16 4 19 -3 4 -4 7
-1 7 3 0 13 -11 22 -24z m-333 -189 c27 -38 46 -66 40 -63 -18 11 -103 130
-127 178 -34 67 -29 74 6 9 17 -30 53 -86 81 -124z m1606 116 c-3 -10 -5 -4
-5 12 0 17 2 24 5 18 2 -7 2 -21 0 -30z m-1447 -108 c0 5 8 1 18 -7 28 -26
115 -68 138 -68 17 0 27 -13 45 -57 13 -32 45 -100 71 -152 26 -52 48 -99 48
-105 -1 -6 -10 6 -21 27 -31 59 -35 36 -4 -30 15 -34 32 -98 41 -153 7 -52 16
-108 20 -125 3 -16 -15 11 -40 61 -25 50 -72 127 -104 170 -74 101 -151 215
-187 279 l-28 50 46 -46 c25 -26 72 -87 106 -137 33 -50 65 -93 71 -97 5 -3
-14 29 -44 72 -71 104 -216 339 -216 350 1 4 10 -3 20 -16 11 -13 20 -20 20
-16z m-510 -40 c0 -5 -5 -3 -10 5 -5 8 -10 20 -10 25 0 6 5 3 10 -5 5 -8 10
-19 10 -25z m906 -1 c-4 -9 -9 -15 -11 -12 -3 3 -3 13 1 22 4 9 9 15 11 12 3
-3 3 -13 -1 -22z m-872 -71 c14 -29 24 -53 21 -53 -5 0 -55 95 -55 106 0 12 6
2 34 -53z m3105 -181 c16 -26 50 -106 75 -179 55 -162 85 -226 141 -302 73
-99 89 -137 89 -216 1 -58 -4 -81 -30 -136 -56 -117 -177 -226 -272 -245 -36
-7 -37 -6 -18 56 11 39 11 52 -2 95 -16 54 -13 168 9 375 12 115 6 236 -17
375 -16 100 -40 213 -50 240 -13 34 43 -13 75 -63z m-3047 -188 c78 -83 102
-98 67 -41 -25 42 -59 151 -59 191 0 29 3 26 30 -29 19 -39 63 -95 125 -160
91 -95 111 -109 80 -55 -25 43 -16 57 13 22 15 -18 67 -61 116 -95 l88 -62 58
-170 c70 -206 62 -186 124 -320 50 -107 51 -112 50 -200 0 -49 -4 -103 -8
-119 -7 -30 -20 -26 -29 9 -4 18 -5 17 -6 -3 0 -13 11 -43 25 -68 23 -40 26
-53 22 -120 -3 -66 -7 -79 -27 -96 -43 -34 -64 -21 -79 47 -8 33 -17 69 -22
80 -12 29 -13 -50 -1 -93 6 -18 6 -30 1 -27 -17 11 -31 108 -20 145 13 47 13
49 -10 22 -28 -33 -33 -79 -16 -142 8 -30 12 -58 8 -62 -4 -3 -41 -9 -83 -13
l-76 -7 -19 33 c-21 36 -19 58 12 157 7 23 11 42 9 42 -13 0 -38 -57 -45 -102
l-8 -53 -1 63 c-1 68 17 124 46 141 14 8 15 10 2 11 -20 0 -63 -47 -79 -88
-13 -33 -10 -151 6 -200 6 -22 5 -23 -51 -20 -50 3 -61 7 -79 31 -34 45 -28
140 12 218 28 55 29 60 10 47 -12 -8 -35 -39 -52 -69 -26 -46 -31 -64 -30
-119 0 -36 6 -75 13 -87 11 -21 10 -23 -13 -23 -54 0 -86 29 -99 88 -8 37 10
140 32 183 24 45 12 53 -17 12 -32 -46 -44 -100 -40 -178 3 -77 -5 -85 -28
-29 -29 69 -12 173 36 227 l28 32 129 2 c70 1 148 3 173 4 26 1 75 -8 113 -20
81 -27 98 -22 30 9 -92 42 -122 48 -172 33 -24 -7 -59 -13 -78 -13 -27 0 -33
4 -33 21 0 20 -50 191 -90 309 -10 30 -55 144 -99 252 -123 302 -173 517 -141
613 l12 38 32 -59 c17 -32 66 -95 108 -140z m1289 79 c-12 -20 -14 -14 -5 12
4 9 9 14 11 11 3 -2 0 -13 -6 -23z m369 1 c-18 -47 -33 -69 -83 -124 -62 -68
-113 -145 -174 -266 -27 -52 -51 -94 -54 -94 -4 0 -10 11 -13 25 -4 14 -11 25
-16 25 -19 0 7 145 35 200 7 14 46 54 86 90 66 59 72 62 65 36 l-7 -28 23 18
c13 11 50 47 82 82 32 34 60 62 62 62 2 0 -1 -12 -6 -26z m-815 -284 c9 -41
36 -118 61 -170 45 -98 38 -97 -20 1 -58 98 -107 262 -105 352 0 26 5 19 24
-38 14 -38 32 -104 40 -145z m-275 175 c13 -14 21 -25 18 -25 -2 0 -15 11 -28
25 -13 14 -21 25 -18 25 2 0 15 -11 28 -25z m35 -280 l56 -99 -10 -85 c-6 -47
-11 -106 -11 -131 -1 -44 -1 -45 -15 -19 -8 14 -28 75 -46 135 -17 60 -46 142
-65 182 -18 39 -30 72 -26 72 4 0 20 -18 36 -40 16 -22 31 -38 33 -37 1 2 -2
19 -7 38 -10 34 -14 96 -6 88 3 -3 30 -49 61 -104z m1828 10 c-3 -9 -8 -14
-10 -11 -3 3 -2 9 2 15 9 16 15 13 8 -4z m-1183 -138 c6 -21 22 -43 35 -50
l24 -12 -32 -55 -31 -55 -7 40 c-3 22 -9 74 -13 115 -7 78 2 85 24 17z m1155
-63 c12 -139 44 -338 60 -376 21 -52 19 -58 -17 -58 -17 0 -39 -7 -48 -15 -16
-14 -21 -14 -53 5 -19 11 -57 23 -84 27 -41 4 -65 17 -139 72 -56 41 -103 86
-127 121 l-38 55 45 11 c25 6 79 30 122 53 88 48 82 51 129 -61 30 -73 81
-138 106 -138 10 1 9 3 -3 10 -9 6 -25 25 -36 43 -27 42 -83 197 -72 197 5 0
16 -24 25 -52 17 -50 35 -84 35 -63 0 6 -7 41 -15 78 -8 37 -11 75 -8 85 4 9
27 41 52 70 53 62 55 60 66 -64z m30 49 c-9 -37 -18 -20 -9 19 4 18 9 27 11
20 3 -7 2 -24 -2 -39z m-1636 -77 c83 -120 109 -148 87 -95 -7 19 -17 50 -21
69 l-7 35 68 -66 c67 -63 135 -119 146 -119 3 0 -1 18 -8 41 -21 60 -5 106 64
183 31 35 58 61 59 57 3 -9 33 -213 33 -225 0 -6 -25 -42 -55 -80 -30 -37 -69
-98 -86 -135 -46 -98 -77 -139 -136 -177 -72 -46 -113 -117 -113 -196 l0 -58
-47 0 -48 0 -3 88 c-5 148 -5 184 -1 272 3 73 0 96 -24 162 -30 84 -34 144
-16 261 12 87 16 100 27 93 5 -3 42 -53 81 -110z m1151 -175 c16 -39 85 -110
162 -167 35 -25 65 -48 67 -50 2 -2 -8 -13 -23 -25 -32 -25 -56 -69 -56 -104
0 -16 -6 -25 -15 -25 -8 0 -15 5 -15 11 0 5 -4 7 -10 4 -5 -3 -8 -16 -6 -28 3
-12 5 -26 5 -31 1 -4 8 -6 16 -2 8 3 15 2 15 -2 1 -4 4 -26 9 -49 l8 -41 -43
-4 -43 -3 5 107 c3 73 1 108 -6 108 -6 0 -8 5 -5 10 3 6 -1 13 -9 16 -9 3 -13
11 -9 18 3 6 3 8 -2 4 -4 -4 -14 0 -22 10 -8 10 -7 1 4 -23 14 -32 17 -61 15
-145 -1 -57 -4 -105 -5 -106 -1 -1 -14 -5 -28 -9 -24 -6 -32 1 -88 73 -75 99
-89 128 -72 145 10 9 15 8 24 -5 56 -82 70 -98 82 -98 9 0 -11 33 -47 80 -58
76 -60 81 -54 122 4 23 12 48 18 55 6 7 8 13 4 13 -6 0 34 113 54 149 16 32
55 27 70 -8z m823 -247 c23 -8 60 -20 82 -25 51 -13 90 -50 112 -107 14 -37
14 -45 2 -53 -22 -14 -29 -11 -29 14 -1 12 -7 33 -15 47 -13 24 -13 23 -12
-24 l2 -50 -40 -8 c-22 -4 -50 -10 -62 -13 -22 -5 -23 -3 -23 65 0 39 -4 70
-10 70 -6 0 -6 9 1 26 9 24 8 26 -6 14 -27 -22 -44 -65 -51 -127 -4 -32 -12
-61 -18 -65 -6 -4 -28 -8 -49 -8 -32 0 -39 4 -48 28 -6 16 -8 52 -4 87 8 73
-7 65 -30 -15 l-15 -55 6 50 c3 28 16 70 30 94 l24 43 -23 -14 c-43 -29 -62
-77 -62 -155 0 -61 -3 -73 -16 -73 -25 0 -38 22 -51 83 -14 64 0 122 37 157
43 40 178 47 268 14z m-453 -10 c22 -9 40 -17 40 -19 0 -1 -7 -16 -15 -31 -23
-44 -28 -88 -17 -138 l10 -46 -30 0 c-26 0 -28 3 -22 23 13 38 10 61 -8 65
-17 3 -35 -25 -52 -80 -7 -24 -81 -25 -90 -2 -12 32 -6 155 10 185 28 54 101
72 174 43z m160 -8 c0 -2 -16 -34 -36 -72 -28 -54 -35 -78 -32 -111 2 -24 0
-43 -4 -43 -19 0 -7 93 18 143 21 40 23 48 9 37 -28 -23 -55 -91 -55 -140 0
-33 -3 -41 -10 -30 -5 8 -10 43 -10 78 0 66 17 113 47 131 17 10 73 15 73 7z
m285 -151 c-4 -31 -9 -54 -12 -51 -3 2 -1 30 2 61 4 31 9 54 12 51 3 -2 1 -30
-2 -61z m-2830 3 c-29 -54 -39 -112 -27 -166 11 -49 -1 -57 -17 -11 -23 68 -7
153 38 198 31 31 32 26 6 -21z m2518 -38 c4 -36 3 -48 -3 -35 -8 19 -14 103
-6 94 2 -2 6 -29 9 -59z m-183 -5 c-7 -20 -14 -34 -17 -31 -3 2 1 20 8 40 17
46 25 38 9 -9z m-450 0 c4 3 22 -14 39 -37 23 -31 28 -44 18 -50 -20 -13 -37
-9 -37 8 0 8 4 12 10 9 6 -4 6 3 0 21 -19 50 -24 49 -36 -6 l-12 -55 0 70 c0
39 2 62 5 52 2 -9 8 -15 13 -12z m757 -17 c-3 -8 -6 -5 -6 6 -1 11 2 17 5 13
3 -3 4 -12 1 -19z m-2799 -135 c28 -16 49 -32 46 -36 -7 -7 -84 32 -84 43 0 4
-6 7 -13 7 -14 0 -107 60 -107 69 0 5 24 -8 158 -83z m2 -56 c0 -2 -10 -12
-22 -23 l-23 -19 19 23 c18 21 26 27 26 19z"/>
<path d="M2893 4548 c-15 -20 -25 -38 -20 -38 3 0 12 11 21 25 17 26 16 35 -1
13z"/>
<path d="M2856 4485 c-9 -26 -7 -32 5 -12 6 10 9 21 6 23 -2 3 -7 -2 -11 -11z"/>
<path d="M3333 4446 c-44 -14 -133 -66 -133 -78 0 -4 26 5 58 20 84 39 208 43
275 9 51 -26 63 -16 25 21 -47 43 -139 54 -225 28z"/>
<path d="M3247 4340 c-64 -41 -60 -47 6 -8 63 38 63 38 51 38 -6 0 -31 -13
-57 -30z"/>
<path d="M1670 4443 c-47 -8 -88 -24 -100 -38 -9 -11 -3 -11 36 1 86 26 185
13 289 -38 l40 -19 -25 22 c-56 50 -173 85 -240 72z"/>
<path d="M2285 4156 c-61 -19 -97 -41 -135 -81 l-35 -38 50 38 c56 42 91 59
168 80 40 10 45 14 22 14 -16 0 -48 -6 -70 -13z"/>
<path d="M1625 4120 c10 -11 20 -20 23 -20 3 0 -3 9 -13 20 -10 11 -20 20 -23
20 -3 0 3 -9 13 -20z"/>
<path d="M2387 3801 c-3 -16 -9 -42 -12 -57 -4 -21 -3 -25 3 -14 11 17 26 100
19 100 -2 0 -7 -13 -10 -29z"/>
<path d="M2781 3815 c0 -11 7 -38 14 -60 l14 -40 -6 40 c-3 22 -9 49 -14 60
l-8 20 0 -20z"/>
<path d="M3330 3826 c0 -14 86 -48 133 -52 l52 -5 -75 24 c-41 13 -83 27 -92
32 -10 4 -18 4 -18 1z"/>
<path d="M1735 3800 c-139 -41 -136 -40 -70 -34 55 5 145 35 145 48 0 8 -5 7
-75 -14z"/>
<path d="M3380 3761 c19 -17 39 -31 44 -31 5 0 7 1 5 3 -2 2 -22 15 -44 31
l-40 27 35 -30z"/>
<path d="M1725 3731 c-6 -5 -38 -19 -73 -31 -75 -27 -77 -35 -3 -15 48 12 101
39 101 50 0 8 -15 6 -25 -4z"/>
<path d="M1905 3687 c-23 -115 40 -203 161 -222 36 -6 41 -4 63 27 l24 33 -26
-24 c-33 -30 -57 -24 -120 30 -55 47 -76 84 -86 148 l-8 46 -8 -38z"/>
<path d="M2740 3684 c87 -39 104 -41 46 -5 -18 12 -44 21 -57 21 -21 -1 -19
-3 11 -16z"/>
<path d="M3212 3662 c-1 -24 -9 -56 -16 -71 -18 -34 -81 -91 -101 -91 -8 0
-15 -4 -15 -10 0 -20 59 -10 88 15 41 34 54 72 49 141 -2 47 -4 50 -5 16z"/>
<path d="M1788 3655 c-2 -3 -51 -16 -109 -31 -135 -33 -182 -63 -235 -149 -12
-19 4 -7 42 31 42 42 76 66 109 78 72 24 86 20 30 -10 -28 -14 -61 -34 -75
-44 -21 -16 -10 -15 63 10 101 33 148 60 171 95 15 23 17 33 4 20z"/>
<path d="M3390 3639 c14 -11 75 -45 135 -76 61 -30 132 -72 160 -92 l50 -36
-28 37 c-37 47 -84 84 -150 113 l-52 23 50 -4 50 -5 -46 24 c-30 16 -72 26
-120 30 l-74 6 25 -20z"/>
<path d="M1737 3551 c-3 -12 -33 -33 -78 -54 -41 -19 -87 -47 -104 -61 l-30
-26 60 26 c33 14 79 39 103 55 24 16 47 29 53 29 5 0 9 11 9 25 0 30 -6 32
-13 6z"/>
<path d="M3418 3535 c13 -10 67 -33 120 -51 95 -33 96 -34 69 -10 -23 21 -83
44 -192 73 -17 4 -17 3 3 -12z"/>
<path d="M2350 3506 c0 -17 37 -96 45 -96 5 0 -33 102 -41 109 -2 2 -4 -3 -4
-13z"/>
<path d="M2789 3466 c-9 -31 -15 -56 -13 -56 11 0 35 65 32 86 -2 19 -7 12
-19 -30z"/>
<path d="M3430 3470 c29 -40 180 -156 200 -153 9 1 75 -37 110 -64 l35 -27
-38 40 c-21 22 -85 69 -143 103 -58 35 -103 65 -101 67 3 3 46 -13 97 -35 131
-56 99 -34 -53 38 -124 58 -127 59 -107 31z"/>
<path d="M1630 3413 c-95 -66 -145 -118 -185 -194 -46 -88 -45 -99 3 -21 47
79 97 132 164 175 53 34 110 88 92 86 -5 0 -38 -21 -74 -46z"/>
<path d="M3677 3258 c67 -74 134 -169 159 -223 12 -27 23 -44 23 -36 2 41 -99
191 -180 266 l-43 40 41 -47z"/>
<path d="M1459 3163 c-13 -16 -12 -17 4 -4 9 7 17 15 17 17 0 8 -8 3 -21 -13z"/>
<path d="M1482 3013 c-52 -74 -71 -155 -54 -228 8 -36 9 -32 9 38 0 68 4 85
35 147 19 39 33 70 32 70 -2 0 -11 -12 -22 -27z"/>
<path d="M2930 3787 c0 -21 12 -28 27 -16 19 16 16 29 -7 29 -11 0 -20 -6 -20
-13z"/>
<path d="M3690 2986 c0 -2 8 -10 18 -17 15 -13 16 -12 3 4 -13 16 -21 21 -21
13z"/>
<path d="M3736 2917 c3 -10 9 -15 12 -12 3 3 0 11 -7 18 -10 9 -11 8 -5 -6z"/>
<path d="M3751 2885 c1 -19 18 -51 18 -35 0 8 -4 22 -9 30 -5 8 -9 11 -9 5z"/>
<path d="M1856 3059 c4 -8 -1 -9 -17 -4 -18 5 -21 4 -13 -4 7 -7 22 -9 39 -5
20 5 23 9 13 15 -19 12 -30 11 -22 -2z"/>
<path d="M1614 2938 l-19 -23 23 19 c21 18 27 26 19 26 -2 0 -12 -10 -23 -22z"/>
<path d="M1973 2921 c-17 -11 -60 -48 -95 -83 -35 -35 -47 -47 -25 -28 l39 35
-16 -39 c-24 -59 -19 -65 13 -15 15 24 41 55 56 69 25 23 70 80 63 80 -2 0
-17 -9 -35 -19z"/>
<path d="M1990 2720 c-9 -6 -10 -10 -3 -10 6 0 15 5 18 10 8 12 4 12 -15 0z"/>
<path d="M1802 2638 c-6 -35 -7 -81 -3 -103 6 -34 8 -24 13 60 4 55 5 101 3
103 -1 2 -7 -25 -13 -60z"/>
<path d="M1949 2683 c-13 -16 -12 -17 4 -4 16 13 21 21 13 21 -2 0 -10 -8 -17
-17z"/>
<path d="M1721 2664 c0 -11 3 -14 6 -6 3 7 2 16 -1 19 -3 4 -6 -2 -5 -13z"/>
<path d="M3470 2936 c0 -2 8 -10 18 -17 15 -13 16 -12 3 4 -13 16 -21 21 -21
13z"/>
<path d="M3893 2430 c0 -36 2 -50 4 -32 2 17 2 47 0 65 -2 17 -4 3 -4 -33z"/>
<path d="M4201 2434 c0 -11 3 -14 6 -6 3 7 2 16 -1 19 -3 4 -6 -2 -5 -13z"/>
<path d="M4212 2329 c-1 -47 -4 -108 -7 -135 -4 -45 -4 -46 5 -16 6 18 9 78 7
135 l-3 102 -2 -86z"/>
<path d="M4412 1708 c-26 -42 -62 -154 -61 -187 0 -14 15 19 33 74 18 55 38
110 44 123 19 34 6 26 -16 -10z"/>
<path d="M3739 1713 c-13 -16 -12 -17 4 -4 16 13 21 21 13 21 -2 0 -10 -8 -17
-17z"/>
<path d="M3945 1480 c-3 -6 1 -7 9 -4 18 7 21 14 7 14 -6 0 -13 -4 -16 -10z"/>
<path d="M4452 1410 c0 -14 2 -19 5 -12 2 6 2 18 0 25 -3 6 -5 1 -5 -13z"/>
<path d="M4443 1270 c0 -41 2 -58 4 -37 2 20 2 54 0 75 -2 20 -4 3 -4 -38z"/>
<path d="M3681 1214 c0 -11 3 -14 6 -6 3 7 2 16 -1 19 -3 4 -6 -2 -5 -13z"/>
<path d="M3661 1149 c-7 -24 -44 -109 -82 -189 -80 -165 -77 -176 4 -20 55
104 101 223 94 243 -1 5 -9 -10 -16 -34z"/>
<path d="M4626 741 c-3 -5 1 -11 9 -14 9 -4 12 -1 8 9 -6 16 -10 17 -17 5z"/>
<path d="M4651 687 c-13 -21 -12 -21 5 -5 10 10 16 20 13 22 -3 3 -11 -5 -18
-17z"/>
<path d="M3350 642 c0 -6 -12 -25 -27 -43 -15 -18 -21 -30 -13 -27 18 6 55 66
46 75 -3 4 -6 1 -6 -5z"/>
<path d="M3032 528 c-16 -24 -36 -57 -45 -75 -13 -24 -25 -33 -54 -38 -77 -13
-70 -25 14 -25 45 0 94 -5 110 -11 21 -8 42 -7 81 2 47 11 60 10 110 -6 31
-10 66 -25 77 -32 27 -18 40 -16 25 3 -33 38 -146 69 -202 53 -31 -8 -50 -7
-91 7 -29 9 -53 18 -55 19 -2 2 13 35 32 74 20 39 34 71 32 71 -3 0 -18 -19
-34 -42z"/>
<path d="M3354 375 c11 -8 24 -15 30 -15 5 0 1 7 -10 15 -10 8 -23 14 -29 14
-5 0 -1 -6 9 -14z"/>
<path d="M3119 2208 c-17 -24 -18 -29 -6 -19 18 14 42 51 33 51 -3 0 -15 -15
-27 -32z"/>
<path d="M2121 2484 c0 -11 3 -14 6 -6 3 7 2 16 -1 19 -3 4 -6 -2 -5 -13z"/>
<path d="M1571 2337 c-1 -23 32 -154 36 -142 1 6 -6 44 -16 85 -10 41 -19 67
-20 57z"/>
<path d="M3259 1943 c-13 -16 -12 -17 4 -4 16 13 21 21 13 21 -2 0 -10 -8 -17
-17z"/>
<path d="M3081 1933 c-25 -36 -26 -41 -6 -18 26 30 49 65 42 65 -2 0 -18 -21
-36 -47z"/>
<path d="M3029 1863 c-13 -16 -12 -17 4 -4 16 13 21 21 13 21 -2 0 -10 -8 -17
-17z"/>
<path d="M2741 1814 c0 -11 3 -14 6 -6 3 7 2 16 -1 19 -3 4 -6 -2 -5 -13z"/>
<path d="M2711 1704 c0 -11 3 -14 6 -6 3 7 2 16 -1 19 -3 4 -6 -2 -5 -13z"/>
<path d="M2761 1614 c-28 -57 -35 -87 -47 -198 -7 -72 -13 -174 -12 -226 l1
-95 7 120 c9 163 25 263 60 370 16 49 28 90 26 92 -1 2 -17 -27 -35 -63z"/>
<path d="M2623 1625 c0 -22 2 -30 4 -17 2 12 2 30 0 40 -3 9 -5 -1 -4 -23z"/>
<path d="M2808 1385 c-6 -14 -14 -25 -18 -25 -4 0 -10 -17 -14 -37 -3 -21 -9
-49 -12 -63 -13 -48 5 -14 35 68 28 78 34 111 9 57z"/>
<path d="M2300 1820 c0 -20 49 -105 81 -140 l31 -35 -21 35 c-11 19 -34 61
-51 93 -29 55 -40 68 -40 47z"/>
<path d="M2141 1224 c0 -11 3 -14 6 -6 3 7 2 16 -1 19 -3 4 -6 -2 -5 -13z"/>
<path d="M2151 1093 c-2 -46 22 -131 59 -208 40 -83 123 -205 139 -205 6 0
-18 46 -51 103 -63 104 -123 234 -138 297 -5 23 -8 27 -9 13z"/>
<path d="M1850 897 c0 -9 79 -239 85 -245 2 -2 8 -1 14 2 7 5 2 29 -13 69 -24
65 -85 188 -86 174z"/>
<path d="M2130 441 c25 -4 52 -10 60 -15 8 -4 6 0 -4 8 -12 10 -37 15 -60 15
l-41 -2 45 -6z"/>
<path d="M2275 380 c-3 -6 4 -10 18 -10 13 0 41 -11 61 -25 32 -22 35 -23 26
-5 -19 36 -91 63 -105 40z"/>
<path d="M4030 592 c0 -13 41 -47 80 -67 26 -14 32 -14 23 -4 -19 23 -103 81
-103 71z"/>
<path d="M4011 574 c0 -11 3 -14 6 -6 3 7 2 16 -1 19 -3 4 -6 -2 -5 -13z"/>
<path d="M1970 4945 c14 -8 32 -14 40 -14 8 0 0 6 -19 14 -42 19 -54 19 -21 0z"/>
<path d="M2051 4937 c2 -1 15 -11 29 -22 l25 -20 -19 23 c-11 12 -24 22 -29
22 -6 0 -8 -1 -6 -3z"/>
<path d="M5096 4615 c-9 -26 -7 -32 5 -12 6 10 9 21 6 23 -2 3 -7 -2 -11 -11z"/>
<path d="M4951 4344 c0 -11 3 -14 6 -6 3 7 2 16 -1 19 -3 4 -6 -2 -5 -13z"/>
<path d="M885 4250 c6 -24 5 -25 -45 -22 -32 3 -50 0 -50 -7 0 -6 6 -11 14
-11 25 0 29 -20 9 -42 -17 -20 -15 -20 14 2 18 13 43 22 60 21 59 -4 73 -3
102 10 17 8 30 18 28 24 -4 12 -76 27 -95 20 -8 -3 -21 3 -28 12 -13 16 -14
16 -9 -7z"/>
<path d="M5093 4238 c-15 -20 -25 -38 -20 -38 3 0 12 11 21 25 17 26 16 35 -1
13z"/>
<path d="M773 3634 c-10 -28 13 -37 25 -9 10 21 9 25 -4 25 -8 0 -17 -7 -21
-16z"/>
<path d="M640 3580 c0 -5 7 -10 15 -10 26 0 16 -15 -11 -17 -42 -2 -55 -23
-14 -23 18 0 42 -8 52 -17 18 -16 18 -17 -4 -42 l-23 -26 27 24 c25 22 26 26
13 41 -17 19 -20 45 -5 35 15 -10 12 3 -7 25 -18 21 -43 27 -43 10z"/>
<path d="M4573 3050 c-16 -6 -21 -14 -16 -26 4 -11 -2 -23 -18 -35 -38 -29
-19 -28 66 2 44 15 75 28 68 29 -6 0 -15 9 -18 20 -7 22 -42 26 -82 10z"/>
<path d="M4730 1825 c30 -30 57 -55 59 -55 3 0 -19 25 -49 55 -30 30 -57 55
-59 55 -3 0 19 -25 49 -55z"/>
<path d="M4840 1811 c0 -5 7 -15 17 -22 15 -13 15 -12 4 9 -12 23 -21 28 -21
13z"/>
<path d="M322 1770 c0 -14 2 -19 5 -12 2 6 2 18 0 25 -3 6 -5 1 -5 -13z"/>
<path d="M331 1704 c0 -11 3 -14 6 -6 3 7 2 16 -1 19 -3 4 -6 -2 -5 -13z"/>
<path d="M0 783 c0 -73 0 -73 28 -73 53 0 56 -10 31 -91 l-22 -74 -17 55 -17
55 4 -100 c2 -55 5 -135 7 -178 2 -42 0 -77 -5 -77 -5 0 -9 -65 -9 -144 l0
-145 97 45 c133 62 286 114 363 123 152 19 388 -35 625 -144 54 -24 91 -35
115 -33 31 3 21 9 -100 62 -285 124 -291 127 -278 145 11 14 11 14 -3 3 -13
-10 -24 -9 -60 8 -24 11 -37 20 -28 20 9 0 42 12 73 26 31 14 87 29 124 33
l67 7 -49 9 c-55 9 -122 -3 -189 -35 l-42 -20 30 25 c36 30 88 51 175 69 l65
14 -75 1 c-49 0 -94 -6 -130 -19 -30 -10 -56 -17 -58 -15 -4 4 46 39 86 59 19
10 66 26 105 36 l72 19 -55 0 c-61 1 -137 -17 -190 -44 l-35 -18 20 23 c11 13
40 36 65 52 29 20 36 27 20 23 -49 -14 -79 -35 -124 -87 l-47 -53 17 40 c9 22
23 54 31 70 l16 30 -28 -25 c-15 -14 -39 -45 -53 -70 -21 -36 -27 -41 -30 -25
-8 47 -23 95 -30 95 -5 0 2 -149 7 -156 1 0 33 -13 72 -29 38 -15 68 -29 66
-31 -5 -5 -244 79 -294 103 -28 13 -47 14 -102 6 l-69 -9 10 25 c27 73 80 150
164 243 51 56 91 104 89 106 -7 7 -200 -154 -237 -199 l-37 -44 35 74 c41 86
40 111 -2 57 -16 -21 -37 -48 -47 -59 -43 -52 13 40 62 102 28 35 51 68 51 73
0 19 -102 -76 -136 -126 -19 -28 -34 -46 -34 -40 0 33 83 226 112 261 7 9 7
13 0 13 -14 0 -68 -63 -109 -128 -19 -29 -48 -90 -63 -135 -32 -91 -35 -89
-18 14 7 48 15 68 23 65 10 -3 10 2 2 25 -6 16 -15 29 -19 29 -4 0 -8 6 -8 13
0 6 -18 41 -40 77 l-40 65 0 -72z m475 -498 l40 -13 -75 -1 c-103 -2 -190 -17
-290 -51 -46 -16 -86 -27 -88 -25 -2 2 24 18 58 35 122 62 267 84 355 55z"/>
<path d="M122 680 c0 -14 2 -19 5 -12 2 6 2 18 0 25 -3 6 -5 1 -5 -13z"/>
<path d="M480 350 c0 -5 5 -10 11 -10 5 0 7 5 4 10 -3 6 -8 10 -11 10 -2 0 -4
-4 -4 -10z"/>
<path d="M4905 296 c-172 -36 -249 -60 -322 -101 -29 -16 -106 -38 -207 -60
-198 -43 -316 -72 -296 -74 8 0 60 10 115 23 83 20 257 56 271 56 2 0 4 -4 4
-8 0 -4 -34 -14 -77 -21 -108 -18 -388 -110 -337 -111 5 0 46 9 90 21 123 32
276 67 271 63 -3 -3 -28 -23 -58 -44 l-53 -40 50 0 c44 0 57 6 139 65 165 119
350 196 545 227 52 8 80 17 80 25 0 19 -37 15 -215 -21z"/>
<path d="M4962 144 c-134 -70 -242 -132 -242 -141 0 -2 90 -3 200 -3 l200 0 0
95 c0 69 -3 95 -12 95 -7 0 -37 -11 -67 -25 -30 -14 -56 -24 -58 -22 -2 2 28
18 67 36 62 29 81 41 65 41 -3 0 -72 -34 -153 -76z"/>
<path d="M4840 110 c-19 -11 -30 -19 -25 -19 6 0 26 8 45 19 19 11 31 19 25
19 -5 0 -26 -8 -45 -19z"/>
<path d="M3710 71 c-64 -20 -124 -43 -135 -50 -20 -12 -20 -12 0 -7 57 16 278
95 265 95 -8 0 -67 -17 -130 -38z"/>
<path d="M4758 74 c-39 -21 -35 -28 5 -8 37 19 44 24 31 24 -5 -1 -21 -8 -36
-16z"/>
<path d="M4285 20 c-22 -11 -34 -19 -27 -20 14 0 72 28 72 35 0 7 0 7 -45 -15z"/>
<path d="M3528 3 c7 -3 16 -2 19 1 4 3 -2 6 -13 5 -11 0 -14 -3 -6 -6z"/>
</g>
</svg>